<svg xmlns="http://www.w3.org/2000/svg" xmlns:xlink="http://www.w3.org/1999/xlink" width="500" zoomAndPan="magnify" viewBox="0 0 375 374.999991" height="500" preserveAspectRatio="xMidYMid meet" version="1.0"><defs><g/><clipPath id="6b62ea9f5f"><path d="M 88.359375 88.359375 L 286.640625 88.359375 L 286.640625 286.640625 L 88.359375 286.640625 Z M 88.359375 88.359375 " clip-rule="nonzero"/></clipPath><clipPath id="919af1aec5"><path d="M 187.5 88.359375 C 132.746094 88.359375 88.359375 132.746094 88.359375 187.5 C 88.359375 242.253906 132.746094 286.640625 187.5 286.640625 C 242.253906 286.640625 286.640625 242.253906 286.640625 187.5 C 286.640625 132.746094 242.253906 88.359375 187.5 88.359375 Z M 187.5 88.359375 " clip-rule="nonzero"/></clipPath><clipPath id="5077e58ab1"><path d="M 67 69 L 265 69 L 265 271 L 67 271 Z M 67 69 " clip-rule="nonzero"/></clipPath><clipPath id="e0eaf57380"><path d="M 19.359375 190.796875 L 180.070312 20.714844 L 265.109375 101.070312 L 104.398438 271.152344 Z M 19.359375 190.796875 " clip-rule="nonzero"/></clipPath><clipPath id="0c67cb9216"><path d="M 19.359375 190.796875 L 180.070312 20.714844 L 265.109375 101.070312 L 104.398438 271.152344 Z M 19.359375 190.796875 " clip-rule="nonzero"/></clipPath><clipPath id="72b759c22a"><path d="M 214 92 L 304 92 L 304 277 L 214 277 Z M 214 92 " clip-rule="nonzero"/></clipPath><clipPath id="06dd0fce41"><path d="M 323.550781 109.066406 L 284.410156 276.296875 L 214.304688 259.886719 L 253.445312 92.65625 Z M 323.550781 109.066406 " clip-rule="nonzero"/></clipPath><clipPath id="17a5b5a851"><path d="M 326.578125 99.625 L 273.253906 327.46875 L 159.332031 300.804688 L 212.65625 72.960938 Z M 326.578125 99.625 " clip-rule="nonzero"/></clipPath></defs><g clip-path="url(#6b62ea9f5f)"><g clip-path="url(#919af1aec5)"><path fill="#ffffff" d="M 88.359375 88.359375 L 286.640625 88.359375 L 286.640625 286.640625 L 88.359375 286.640625 Z M 88.359375 88.359375 " fill-opacity="1" fill-rule="nonzero"/></g></g><g fill="#000000" fill-opacity="1"><g transform="translate(105.830441, 224.601837)"><g><path d="M 88.171875 -25.03125 C 88.648438 -24.789062 88.8125 -24.394531 88.65625 -23.84375 C 88.570312 -23.601562 88.03125 -22.5625 87.03125 -20.71875 C 86.03125 -18.882812 84.710938 -16.648438 83.078125 -14.015625 C 81.441406 -11.378906 79.566406 -8.660156 77.453125 -5.859375 C 75.335938 -3.066406 73.082031 -0.59375 70.6875 1.5625 L 70.6875 1.671875 L 70.5625 1.671875 C 68.800781 3.273438 66.941406 4.59375 64.984375 5.625 C 63.035156 6.664062 61.101562 7.1875 59.1875 7.1875 L 57.984375 7.1875 C 56.066406 6.945312 54.507812 5.867188 53.3125 3.953125 C 51.46875 1.160156 50.484375 -3.390625 50.359375 -9.703125 C 50.242188 -16.015625 50.785156 -23.28125 51.984375 -31.5 C 50.390625 -31.257812 48.8125 -31.039062 47.25 -30.84375 C 45.695312 -30.644531 44.125 -30.46875 42.53125 -30.3125 L 39.53125 -29.953125 C 35.539062 -22.597656 31.90625 -16.644531 28.625 -12.09375 C 24.875 -6.75 21.582031 -3.15625 18.75 -1.3125 C 15.914062 0.519531 13.21875 1.4375 10.65625 1.4375 C 10.34375 1.4375 10.023438 1.414062 9.703125 1.375 C 9.378906 1.332031 9.019531 1.3125 8.625 1.3125 C 4.550781 0.832031 1.875 -1.117188 0.59375 -4.546875 C -0.125 -6.628906 -0.164062 -8.804688 0.46875 -11.078125 C 1.113281 -13.359375 2.316406 -15.492188 4.078125 -17.484375 C 7.265625 -20.921875 10.675781 -23.554688 14.3125 -25.390625 C 17.945312 -27.234375 21.800781 -28.613281 25.875 -29.53125 C 29.945312 -30.445312 34.140625 -31.144531 38.453125 -31.625 C 41.890625 -37.9375 45.679688 -45.34375 49.828125 -53.84375 C 53.984375 -62.351562 58.539062 -72.078125 63.5 -83.015625 C 63.8125 -84.140625 64.128906 -85.257812 64.453125 -86.375 C 64.773438 -87.488281 65.09375 -88.566406 65.40625 -89.609375 C 65.644531 -90.722656 66.328125 -91.398438 67.453125 -91.640625 C 68.648438 -91.878906 69.609375 -91.640625 70.328125 -90.921875 L 71.15625 -90.09375 C 73.71875 -87.695312 74.476562 -84.738281 73.4375 -81.21875 C 72.320312 -77.550781 71.101562 -73.21875 69.78125 -68.21875 C 68.46875 -63.226562 67.148438 -57.914062 65.828125 -52.28125 C 64.515625 -46.65625 63.296875 -41.046875 62.171875 -35.453125 C 64.804688 -36.171875 67.398438 -37.085938 69.953125 -38.203125 C 72.515625 -39.328125 74.992188 -40.6875 77.390625 -42.28125 C 77.953125 -42.601562 78.351562 -42.523438 78.59375 -42.046875 C 79.070312 -41.566406 78.988281 -41.164062 78.34375 -40.84375 C 75.707031 -39.09375 73.007812 -37.617188 70.25 -36.421875 C 67.5 -35.222656 64.6875 -34.265625 61.8125 -33.546875 L 61.453125 -31.03125 C 60.253906 -24.082031 59.515625 -18.46875 59.234375 -14.1875 C 58.960938 -9.914062 58.960938 -6.625 59.234375 -4.3125 C 59.515625 -2 59.914062 -0.382812 60.4375 0.53125 C 60.957031 1.457031 61.457031 2 61.9375 2.15625 C 63.132812 2.632812 64.3125 2.691406 65.46875 2.328125 C 66.625 1.972656 67.582031 1.535156 68.34375 1.015625 C 69.101562 0.492188 69.484375 0.234375 69.484375 0.234375 C 69.566406 0.234375 69.609375 0.195312 69.609375 0.125 C 71.921875 -2.03125 74.113281 -4.484375 76.1875 -7.234375 C 78.269531 -9.992188 80.109375 -12.691406 81.703125 -15.328125 C 83.296875 -17.960938 84.570312 -20.140625 85.53125 -21.859375 C 86.488281 -23.578125 86.96875 -24.476562 86.96875 -24.5625 C 87.207031 -25.039062 87.609375 -25.195312 88.171875 -25.03125 Z M 27.1875 -13.0625 C 30.226562 -17.289062 33.625 -22.835938 37.375 -29.703125 C 31.300781 -28.910156 25.550781 -27.65625 20.125 -25.9375 C 14.695312 -24.21875 9.785156 -21.003906 5.390625 -16.296875 C 3.867188 -14.535156 2.828125 -12.65625 2.265625 -10.65625 C 1.710938 -8.664062 1.71875 -6.832031 2.28125 -5.15625 C 3.3125 -2.4375 5.503906 -0.878906 8.859375 -0.484375 C 10.703125 -0.242188 12.5 -0.378906 14.25 -0.890625 C 16.007812 -1.410156 17.945312 -2.609375 20.0625 -4.484375 C 22.175781 -6.367188 24.550781 -9.226562 27.1875 -13.0625 Z M 52.234375 -33.421875 C 53.109375 -39.410156 54.242188 -45.71875 55.640625 -52.34375 C 57.035156 -58.976562 58.613281 -65.609375 60.375 -72.234375 C 56.625 -64.015625 53.085938 -56.53125 49.765625 -49.78125 C 46.453125 -43.03125 43.398438 -37.054688 40.609375 -31.859375 L 42.40625 -32.109375 C 44 -32.265625 45.613281 -32.441406 47.25 -32.640625 C 48.894531 -32.835938 50.554688 -33.097656 52.234375 -33.421875 Z M 52.234375 -33.421875 "/></g></g></g><g fill="#000000" fill-opacity="1"><g transform="translate(192.440661, 224.601837)"><g><path d="M 62.78125 -73.3125 C 63.019531 -73 63.019531 -72.679688 62.78125 -72.359375 L 58.453125 -65.296875 C 58.210938 -65.054688 57.9375 -64.9375 57.625 -64.9375 C 57.300781 -64.9375 57.0625 -65.09375 56.90625 -65.40625 C 55.863281 -67.644531 54.523438 -69.921875 52.890625 -72.234375 C 51.253906 -74.554688 49.273438 -75.992188 46.953125 -76.546875 C 44.796875 -77.109375 42.398438 -76.472656 39.765625 -74.640625 C 36.734375 -71.921875 33.71875 -68.503906 30.71875 -64.390625 C 27.726562 -60.273438 24.992188 -55.976562 22.515625 -51.5 C 20.046875 -47.03125 17.929688 -42.84375 16.171875 -38.9375 C 18.484375 -42.445312 21.253906 -45.695312 24.484375 -48.6875 C 27.722656 -51.6875 30.984375 -53.546875 34.265625 -54.265625 C 36.972656 -54.984375 39.328125 -54.582031 41.328125 -53.0625 C 43.328125 -51.625 44.40625 -49.707031 44.5625 -47.3125 C 44.71875 -44.914062 44.359375 -42.238281 43.484375 -39.28125 C 42.609375 -36.332031 41.570312 -33.257812 40.375 -30.0625 C 39.894531 -28.789062 39.429688 -27.515625 38.984375 -26.234375 C 38.546875 -24.953125 38.128906 -23.675781 37.734375 -22.40625 C 36.140625 -17.289062 35.203125 -12.875 34.921875 -9.15625 C 34.640625 -5.445312 35.019531 -2.914062 36.0625 -1.5625 C 36.457031 -0.914062 37.175781 -0.59375 38.21875 -0.59375 C 38.375 -0.59375 38.53125 -0.613281 38.6875 -0.65625 C 38.851562 -0.695312 39.015625 -0.757812 39.171875 -0.84375 C 39.253906 -0.84375 39.332031 -0.878906 39.40625 -0.953125 C 41.25 -1.835938 43.625 -4.316406 46.53125 -8.390625 C 49.445312 -12.460938 52.664062 -17.8125 56.1875 -24.4375 C 56.5 -24.914062 56.894531 -25.035156 57.375 -24.796875 C 57.9375 -24.472656 58.054688 -24.070312 57.734375 -23.59375 C 55.984375 -20.320312 54.085938 -16.96875 52.046875 -13.53125 C 50.015625 -10.101562 47.957031 -7.109375 45.875 -4.546875 C 43.800781 -1.992188 41.882812 -0.28125 40.125 0.59375 L 40.125 0.71875 C 39.007812 1.4375 37.535156 1.796875 35.703125 1.796875 C 34.816406 1.796875 33.9375 1.675781 33.0625 1.4375 C 30.664062 0.875 28.910156 -0.5625 27.796875 -2.875 C 27.078125 -4.394531 26.65625 -6.3125 26.53125 -8.625 C 26.414062 -10.9375 26.851562 -14.066406 27.84375 -18.015625 C 28.84375 -21.972656 30.582031 -27.109375 33.0625 -33.421875 C 35.21875 -38.847656 36.492188 -43.160156 36.890625 -46.359375 C 37.296875 -49.554688 37.140625 -51.550781 36.421875 -52.34375 C 36.335938 -52.507812 36.15625 -52.628906 35.875 -52.703125 C 35.59375 -52.785156 35.175781 -52.75 34.625 -52.59375 L 34.375 -52.59375 C 32.300781 -52.03125 30.085938 -50.847656 27.734375 -49.046875 C 25.378906 -47.253906 23.101562 -45.039062 20.90625 -42.40625 C 18.707031 -39.769531 16.8125 -36.9375 15.21875 -33.90625 C 13.695312 -25.113281 12.359375 -18.378906 11.203125 -13.703125 C 10.046875 -9.035156 9.425781 -6.546875 9.34375 -6.234375 C 8.945312 -4.953125 8.269531 -3.875 7.3125 -3 C 6.1875 -1.875 4.707031 -0.953125 2.875 -0.234375 C 2.550781 -0.078125 2.269531 0 2.03125 0 C 1.476562 0 1 -0.195312 0.59375 -0.59375 C 0.0390625 -1.238281 -0.113281 -1.957031 0.125 -2.75 C 1.238281 -5.46875 2.3125 -8.984375 3.34375 -13.296875 C 4.382812 -17.609375 5.363281 -22.421875 6.28125 -27.734375 C 7.207031 -33.046875 8.085938 -38.554688 8.921875 -44.265625 C 9.765625 -49.972656 10.503906 -55.601562 11.140625 -61.15625 C 11.773438 -66.707031 12.289062 -71.898438 12.6875 -76.734375 C 13.09375 -81.566406 13.375 -85.695312 13.53125 -89.125 C 13.695312 -90.082031 14.140625 -90.765625 14.859375 -91.171875 C 15.253906 -91.410156 15.648438 -91.53125 16.046875 -91.53125 C 16.609375 -91.53125 17.050781 -91.410156 17.375 -91.171875 L 19.640625 -89.734375 C 21.484375 -88.535156 22.285156 -86.816406 22.046875 -84.578125 C 21.328125 -76.910156 20.546875 -69.78125 19.703125 -63.1875 C 18.867188 -56.601562 18.007812 -50.59375 17.125 -45.15625 C 18.800781 -48.507812 20.757812 -52.082031 23 -55.875 C 25.238281 -59.675781 27.675781 -63.332031 30.3125 -66.84375 C 32.945312 -70.363281 35.660156 -73.359375 38.453125 -75.828125 C 38.535156 -75.828125 38.578125 -75.847656 38.578125 -75.890625 C 38.578125 -75.929688 38.578125 -75.953125 38.578125 -75.953125 L 38.6875 -75.953125 C 40.6875 -77.710938 42.664062 -79.128906 44.625 -80.203125 C 46.582031 -81.285156 48.554688 -81.863281 50.546875 -81.9375 C 55.421875 -82.175781 59.5 -79.300781 62.78125 -73.3125 Z M 62.78125 -73.3125 "/></g></g></g><g clip-path="url(#5077e58ab1)"><g clip-path="url(#e0eaf57380)"><g clip-path="url(#0c67cb9216)"><path fill="#ffffff" d="M 264.683594 101.21875 L 263.164062 102.828125 C 217.242188 59.433594 144.582031 61.492188 101.195312 107.414062 C 57.804688 153.332031 59.859375 225.992188 105.78125 269.386719 L 104.261719 270.992188 C 81.589844 249.570312 68.609375 220.597656 67.730469 189.414062 C 66.847656 158.230469 78.160156 128.570312 99.585938 105.894531 C 121.011719 83.21875 149.984375 70.25 181.164062 69.367188 C 212.34375 68.480469 242.007812 79.796875 264.683594 101.21875 Z M 264.683594 101.21875 " fill-opacity="1" fill-rule="nonzero"/></g></g></g><g fill="#ffffff" fill-opacity="1"><g transform="translate(105.440134, 273.340681)"><g><path d="M 8.109375 7.078125 L 6.546875 5.71875 L 7.28125 3.625 L 3.59375 0.40625 L 1.59375 1.390625 L 0.0625 0.046875 L 10.390625 -5.0625 L 11.78125 -3.84375 Z M 9.21875 -2.421875 L 5.15625 -0.390625 L 7.84375 1.953125 L 9.3125 -2.328125 L 9.4375 -2.546875 L 9.421875 -2.5625 Z M 9.21875 -2.421875 "/></g></g></g><g fill="#ffffff" fill-opacity="1"><g transform="translate(113.889107, 280.778078)"><g><path d="M 2.625 1.859375 L 1.03125 0.734375 L 7.140625 -7.953125 L 8.53125 -6.984375 L 8.6875 -0.828125 L 14.546875 -2.75 L 15.9375 -1.765625 L 9.828125 6.921875 L 8.234375 5.796875 L 12.5625 -0.34375 L 7.46875 1.375 L 7.03125 1.0625 L 6.953125 -4.296875 Z M 2.625 1.859375 "/></g></g></g><g fill="#ffffff" fill-opacity="1"><g transform="translate(125.12486, 288.592186)"><g><path d="M 4.8125 2.9375 C 4.25 2.625 3.773438 2.242188 3.390625 1.796875 C 3.015625 1.359375 2.734375 0.867188 2.546875 0.328125 C 2.367188 -0.203125 2.304688 -0.757812 2.359375 -1.34375 C 2.421875 -1.925781 2.613281 -2.503906 2.9375 -3.078125 L 6.09375 -8.78125 L 7.796875 -7.828125 L 4.703125 -2.25 C 4.460938 -1.8125 4.332031 -1.363281 4.3125 -0.90625 C 4.289062 -0.457031 4.390625 -0.0351562 4.609375 0.359375 C 4.828125 0.765625 5.179688 1.101562 5.671875 1.375 C 6.140625 1.632812 6.597656 1.753906 7.046875 1.734375 C 7.503906 1.710938 7.925781 1.570312 8.3125 1.3125 C 8.695312 1.050781 9.007812 0.703125 9.25 0.265625 L 12.34375 -5.3125 L 14.03125 -4.359375 L 10.875 1.34375 C 10.5625 1.894531 10.179688 2.347656 9.734375 2.703125 C 9.296875 3.054688 8.804688 3.304688 8.265625 3.453125 C 7.722656 3.597656 7.15625 3.628906 6.5625 3.546875 C 5.976562 3.460938 5.394531 3.257812 4.8125 2.9375 Z M 4.8125 2.9375 "/></g></g></g><g fill="#ffffff" fill-opacity="1"><g transform="translate(135.283235, 294.192374)"><g><path d="M 13.34375 -5.765625 L 7.984375 -2.96875 L 9.578125 4.1875 L 7.46875 3.265625 L 6.265625 -2.1875 L 3.9375 -0.953125 L 2.953125 1.296875 L 1.15625 0.5 L 5.40625 -9.234375 L 7.203125 -8.4375 L 4.96875 -3.3125 L 11.25 -6.671875 Z M 13.34375 -5.765625 "/></g></g></g><g fill="#ffffff" fill-opacity="1"><g transform="translate(145.234777, 298.426015)"><g><path d="M 3.03125 1.09375 L 1.1875 0.4375 L 4.796875 -9.5625 L 6.640625 -8.90625 Z M 3.03125 1.09375 "/></g></g></g><g fill="#ffffff" fill-opacity="1"><g transform="translate(149.675461, 300.19968)"><g><path d="M 3.109375 0.859375 L 1.21875 0.34375 L 4.046875 -9.890625 L 5.6875 -9.4375 L 7.90625 -3.703125 L 12.765625 -7.484375 L 14.40625 -7.03125 L 11.578125 3.203125 L 9.703125 2.6875 L 11.703125 -4.5625 L 7.484375 -1.21875 L 6.96875 -1.375 L 5.109375 -6.40625 Z M 3.109375 0.859375 "/></g></g></g><g fill="#ffffff" fill-opacity="1"><g transform="translate(162.785439, 303.632292)"><g/></g></g><g fill="#ffffff" fill-opacity="1"><g transform="translate(166.823788, 304.51012)"><g><path d="M 3.1875 0.4375 L 1.25 0.171875 L 2.6875 -10.359375 L 7.140625 -9.75 C 7.660156 -9.675781 8.132812 -9.519531 8.5625 -9.28125 C 8.988281 -9.039062 9.34375 -8.742188 9.625 -8.390625 C 9.90625 -8.035156 10.101562 -7.625 10.21875 -7.15625 C 10.34375 -6.695312 10.367188 -6.210938 10.296875 -5.703125 C 10.222656 -5.160156 10.066406 -4.679688 9.828125 -4.265625 C 9.585938 -3.847656 9.285156 -3.5 8.921875 -3.21875 C 8.554688 -2.945312 8.140625 -2.753906 7.671875 -2.640625 C 7.203125 -2.523438 6.707031 -2.503906 6.1875 -2.578125 L 3.640625 -2.921875 Z M 4.390625 -8.375 L 3.890625 -4.640625 L 6.34375 -4.3125 C 6.664062 -4.257812 6.972656 -4.300781 7.265625 -4.4375 C 7.566406 -4.570312 7.8125 -4.769531 8 -5.03125 C 8.195312 -5.289062 8.320312 -5.601562 8.375 -5.96875 C 8.414062 -6.289062 8.375 -6.597656 8.25 -6.890625 C 8.132812 -7.191406 7.953125 -7.445312 7.703125 -7.65625 C 7.453125 -7.863281 7.160156 -7.992188 6.828125 -8.046875 Z M 4.390625 -8.375 "/></g></g></g><g fill="#ffffff" fill-opacity="1"><g transform="translate(176.742899, 305.864839)"><g><path d="M 3.21875 0.15625 L 1.265625 0.0625 L 1.796875 -10.546875 L 6.390625 -10.3125 C 6.910156 -10.289062 7.394531 -10.1875 7.84375 -10 C 8.289062 -9.8125 8.671875 -9.554688 8.984375 -9.234375 C 9.296875 -8.910156 9.53125 -8.53125 9.6875 -8.09375 C 9.84375 -7.65625 9.910156 -7.179688 9.890625 -6.671875 C 9.867188 -6.171875 9.753906 -5.722656 9.546875 -5.328125 C 9.347656 -4.929688 9.078125 -4.59375 8.734375 -4.3125 C 8.398438 -4.03125 8.007812 -3.828125 7.5625 -3.703125 L 9.765625 0.484375 L 7.53125 0.375 L 5.640625 -3.5 C 5.566406 -3.5 5.492188 -3.5 5.421875 -3.5 C 5.359375 -3.5 5.289062 -3.503906 5.21875 -3.515625 L 3.40625 -3.609375 Z M 3.671875 -8.71875 L 3.484375 -5.25 L 6.046875 -5.109375 C 6.378906 -5.109375 6.6875 -5.171875 6.96875 -5.296875 C 7.257812 -5.429688 7.488281 -5.625 7.65625 -5.875 C 7.820312 -6.132812 7.914062 -6.4375 7.9375 -6.78125 C 7.957031 -7.101562 7.890625 -7.394531 7.734375 -7.65625 C 7.585938 -7.925781 7.382812 -8.144531 7.125 -8.3125 C 6.863281 -8.476562 6.566406 -8.566406 6.234375 -8.578125 Z M 3.671875 -8.71875 "/></g></g></g><g fill="#ffffff" fill-opacity="1"><g transform="translate(187.237151, 306.431593)"><g><path d="M 6.265625 -0.0625 C 5.628906 -0.03125 5.019531 -0.09375 4.4375 -0.25 C 3.851562 -0.414062 3.316406 -0.65625 2.828125 -0.96875 C 2.335938 -1.289062 1.90625 -1.671875 1.53125 -2.109375 C 1.15625 -2.554688 0.851562 -3.054688 0.625 -3.609375 C 0.40625 -4.160156 0.285156 -4.742188 0.265625 -5.359375 C 0.234375 -5.984375 0.300781 -6.570312 0.46875 -7.125 C 0.632812 -7.675781 0.878906 -8.191406 1.203125 -8.671875 C 1.535156 -9.160156 1.929688 -9.582031 2.390625 -9.9375 C 2.847656 -10.300781 3.359375 -10.585938 3.921875 -10.796875 C 4.492188 -11.003906 5.097656 -11.125 5.734375 -11.15625 C 6.347656 -11.1875 6.941406 -11.125 7.515625 -10.96875 C 8.097656 -10.8125 8.632812 -10.578125 9.125 -10.265625 C 9.625 -9.953125 10.0625 -9.570312 10.4375 -9.125 C 10.820312 -8.675781 11.125 -8.179688 11.34375 -7.640625 C 11.5625 -7.109375 11.6875 -6.53125 11.71875 -5.90625 C 11.738281 -5.289062 11.664062 -4.695312 11.5 -4.125 C 11.34375 -3.5625 11.097656 -3.039062 10.765625 -2.5625 C 10.429688 -2.082031 10.03125 -1.660156 9.5625 -1.296875 C 9.101562 -0.929688 8.59375 -0.640625 8.03125 -0.421875 C 7.476562 -0.210938 6.890625 -0.09375 6.265625 -0.0625 Z M 6.171875 -1.859375 C 6.679688 -1.890625 7.160156 -2.007812 7.609375 -2.21875 C 8.054688 -2.425781 8.445312 -2.707031 8.78125 -3.0625 C 9.113281 -3.414062 9.367188 -3.828125 9.546875 -4.296875 C 9.722656 -4.765625 9.800781 -5.269531 9.78125 -5.8125 C 9.75 -6.351562 9.625 -6.84375 9.40625 -7.28125 C 9.1875 -7.726562 8.894531 -8.113281 8.53125 -8.4375 C 8.164062 -8.757812 7.75 -9.003906 7.28125 -9.171875 C 6.8125 -9.335938 6.320312 -9.40625 5.8125 -9.375 C 5.289062 -9.351562 4.804688 -9.238281 4.359375 -9.03125 C 3.910156 -8.820312 3.519531 -8.535156 3.1875 -8.171875 C 2.851562 -7.816406 2.597656 -7.410156 2.421875 -6.953125 C 2.253906 -6.492188 2.1875 -5.992188 2.21875 -5.453125 C 2.238281 -4.910156 2.351562 -4.410156 2.5625 -3.953125 C 2.78125 -3.503906 3.070312 -3.117188 3.4375 -2.796875 C 3.800781 -2.484375 4.21875 -2.242188 4.6875 -2.078125 C 5.15625 -1.910156 5.648438 -1.835938 6.171875 -1.859375 Z M 6.171875 -1.859375 "/></g></g></g><g fill="#ffffff" fill-opacity="1"><g transform="translate(200.125385, 305.765214)"><g><path d="M 5.328125 -0.8125 L 1.25 -0.1875 L -0.359375 -10.6875 L 3.6875 -11.3125 C 4.53125 -11.445312 5.3125 -11.441406 6.03125 -11.296875 C 6.757812 -11.160156 7.398438 -10.894531 7.953125 -10.5 C 8.515625 -10.113281 8.976562 -9.617188 9.34375 -9.015625 C 9.71875 -8.410156 9.960938 -7.71875 10.078125 -6.9375 C 10.203125 -6.144531 10.175781 -5.40625 10 -4.71875 C 9.832031 -4.03125 9.539062 -3.414062 9.125 -2.875 C 8.71875 -2.34375 8.191406 -1.898438 7.546875 -1.546875 C 6.898438 -1.191406 6.160156 -0.945312 5.328125 -0.8125 Z M 1.796875 -9.28125 L 2.890625 -2.203125 L 5 -2.53125 C 5.757812 -2.644531 6.394531 -2.882812 6.90625 -3.25 C 7.414062 -3.625 7.773438 -4.097656 7.984375 -4.671875 C 8.191406 -5.242188 8.242188 -5.890625 8.140625 -6.609375 C 8.023438 -7.316406 7.78125 -7.914062 7.40625 -8.40625 C 7.039062 -8.894531 6.554688 -9.242188 5.953125 -9.453125 C 5.359375 -9.671875 4.671875 -9.722656 3.890625 -9.609375 Z M 1.796875 -9.28125 "/></g></g></g><g fill="#ffffff" fill-opacity="1"><g transform="translate(211.905692, 303.928186)"><g><path d="M 5.515625 -1.171875 C 4.890625 -1.003906 4.285156 -0.953125 3.703125 -1.015625 C 3.117188 -1.078125 2.578125 -1.238281 2.078125 -1.5 C 1.578125 -1.769531 1.148438 -2.132812 0.796875 -2.59375 C 0.441406 -3.0625 0.1875 -3.613281 0.03125 -4.25 L -1.59375 -10.5625 L 0.28125 -11.046875 L 1.859375 -4.859375 C 1.984375 -4.378906 2.195312 -3.96875 2.5 -3.625 C 2.800781 -3.28125 3.164062 -3.035156 3.59375 -2.890625 C 4.019531 -2.753906 4.507812 -2.757812 5.0625 -2.90625 C 5.582031 -3.03125 6 -3.253906 6.3125 -3.578125 C 6.632812 -3.910156 6.84375 -4.300781 6.9375 -4.75 C 7.03125 -5.207031 7.015625 -5.675781 6.890625 -6.15625 L 5.3125 -12.34375 L 7.203125 -12.828125 L 8.828125 -6.515625 C 8.984375 -5.898438 9.019531 -5.304688 8.9375 -4.734375 C 8.851562 -4.171875 8.664062 -3.648438 8.375 -3.171875 C 8.082031 -2.691406 7.691406 -2.273438 7.203125 -1.921875 C 6.722656 -1.578125 6.160156 -1.328125 5.515625 -1.171875 Z M 5.515625 -1.171875 "/></g></g></g><g fill="#ffffff" fill-opacity="1"><g transform="translate(223.162548, 301.032237)"><g><path d="M 5.828125 -1.890625 C 5.242188 -1.671875 4.65625 -1.550781 4.0625 -1.53125 C 3.46875 -1.519531 2.894531 -1.59375 2.34375 -1.75 C 1.789062 -1.90625 1.273438 -2.140625 0.796875 -2.453125 C 0.316406 -2.773438 -0.101562 -3.164062 -0.46875 -3.625 C -0.84375 -4.082031 -1.132812 -4.597656 -1.34375 -5.171875 C -1.5625 -5.765625 -1.675781 -6.351562 -1.6875 -6.9375 C -1.695312 -7.519531 -1.617188 -8.085938 -1.453125 -8.640625 C -1.296875 -9.191406 -1.054688 -9.707031 -0.734375 -10.1875 C -0.421875 -10.664062 -0.03125 -11.082031 0.4375 -11.4375 C 0.90625 -11.800781 1.429688 -12.09375 2.015625 -12.3125 C 2.546875 -12.5 3.097656 -12.609375 3.671875 -12.640625 C 4.242188 -12.679688 4.8125 -12.625 5.375 -12.46875 C 5.945312 -12.320312 6.476562 -12.0625 6.96875 -11.6875 C 7.457031 -11.320312 7.882812 -10.828125 8.25 -10.203125 L 6.390625 -9.515625 C 6.078125 -9.972656 5.710938 -10.3125 5.296875 -10.53125 C 4.878906 -10.75 4.4375 -10.859375 3.96875 -10.859375 C 3.507812 -10.867188 3.046875 -10.789062 2.578125 -10.625 C 2.109375 -10.445312 1.695312 -10.203125 1.34375 -9.890625 C 0.988281 -9.578125 0.710938 -9.203125 0.515625 -8.765625 C 0.316406 -8.335938 0.210938 -7.875 0.203125 -7.375 C 0.191406 -6.882812 0.285156 -6.375 0.484375 -5.84375 C 0.679688 -5.300781 0.941406 -4.84375 1.265625 -4.46875 C 1.597656 -4.101562 1.976562 -3.820312 2.40625 -3.625 C 2.832031 -3.4375 3.28125 -3.332031 3.75 -3.3125 C 4.226562 -3.300781 4.703125 -3.382812 5.171875 -3.5625 C 5.640625 -3.726562 6.046875 -3.960938 6.390625 -4.265625 C 6.742188 -4.578125 7.007812 -4.953125 7.1875 -5.390625 C 7.363281 -5.828125 7.421875 -6.320312 7.359375 -6.875 L 9.21875 -7.5625 C 9.34375 -6.851562 9.335938 -6.195312 9.203125 -5.59375 C 9.066406 -4.988281 8.832031 -4.441406 8.5 -3.953125 C 8.175781 -3.472656 7.785156 -3.054688 7.328125 -2.703125 C 6.867188 -2.359375 6.367188 -2.085938 5.828125 -1.890625 Z M 5.828125 -1.890625 "/></g></g></g><g fill="#ffffff" fill-opacity="1"><g transform="translate(234.520115, 296.785055)"><g><path d="M 4.921875 -2.328125 L 3.171875 -1.5 L -0.625 -9.53125 L -3.484375 -8.171875 L -4.21875 -9.75 L 3.25 -13.28125 L 3.984375 -11.703125 L 1.125 -10.359375 Z M 4.921875 -2.328125 "/></g></g></g><g fill="#ffffff" fill-opacity="1"><g transform="translate(242.774554, 292.807772)"><g><path d="M 2.828125 -1.546875 L 1.109375 -0.609375 L -3.984375 -9.9375 L -2.265625 -10.875 Z M 2.828125 -1.546875 "/></g></g></g><g fill="#ffffff" fill-opacity="1"><g transform="translate(247.021968, 290.644472)"><g><path d="M 5.375 -3.1875 C 4.84375 -2.84375 4.285156 -2.59375 3.703125 -2.4375 C 3.117188 -2.289062 2.535156 -2.226562 1.953125 -2.25 C 1.367188 -2.28125 0.800781 -2.394531 0.25 -2.59375 C -0.289062 -2.789062 -0.789062 -3.070312 -1.25 -3.4375 C -1.71875 -3.800781 -2.117188 -4.238281 -2.453125 -4.75 C -2.785156 -5.28125 -3.019531 -5.828125 -3.15625 -6.390625 C -3.300781 -6.960938 -3.347656 -7.539062 -3.296875 -8.125 C -3.253906 -8.707031 -3.125 -9.265625 -2.90625 -9.796875 C -2.695312 -10.335938 -2.398438 -10.84375 -2.015625 -11.3125 C -1.628906 -11.78125 -1.171875 -12.1875 -0.640625 -12.53125 C -0.117188 -12.863281 0.429688 -13.109375 1.015625 -13.265625 C 1.597656 -13.421875 2.179688 -13.488281 2.765625 -13.46875 C 3.347656 -13.445312 3.910156 -13.335938 4.453125 -13.140625 C 5.003906 -12.941406 5.507812 -12.660156 5.96875 -12.296875 C 6.4375 -11.941406 6.835938 -11.5 7.171875 -10.96875 C 7.503906 -10.457031 7.738281 -9.914062 7.875 -9.34375 C 8.019531 -8.769531 8.066406 -8.191406 8.015625 -7.609375 C 7.972656 -7.023438 7.84375 -6.460938 7.625 -5.921875 C 7.414062 -5.378906 7.117188 -4.875 6.734375 -4.40625 C 6.359375 -3.9375 5.90625 -3.53125 5.375 -3.1875 Z M 4.40625 -4.703125 C 4.84375 -4.984375 5.203125 -5.328125 5.484375 -5.734375 C 5.765625 -6.140625 5.957031 -6.578125 6.0625 -7.046875 C 6.175781 -7.523438 6.191406 -8.007812 6.109375 -8.5 C 6.023438 -9 5.835938 -9.472656 5.546875 -9.921875 C 5.253906 -10.378906 4.898438 -10.742188 4.484375 -11.015625 C 4.066406 -11.296875 3.617188 -11.484375 3.140625 -11.578125 C 2.671875 -11.679688 2.191406 -11.6875 1.703125 -11.59375 C 1.210938 -11.5 0.75 -11.3125 0.3125 -11.03125 C -0.125 -10.75 -0.484375 -10.40625 -0.765625 -10 C -1.046875 -9.59375 -1.238281 -9.148438 -1.34375 -8.671875 C -1.457031 -8.203125 -1.46875 -7.722656 -1.375 -7.234375 C -1.289062 -6.742188 -1.101562 -6.269531 -0.8125 -5.8125 C -0.519531 -5.363281 -0.171875 -5 0.234375 -4.71875 C 0.648438 -4.4375 1.09375 -4.242188 1.5625 -4.140625 C 2.039062 -4.046875 2.523438 -4.046875 3.015625 -4.140625 C 3.503906 -4.234375 3.96875 -4.421875 4.40625 -4.703125 Z M 4.40625 -4.703125 "/></g></g></g><g fill="#ffffff" fill-opacity="1"><g transform="translate(257.850676, 283.60954)"><g><path d="M 2.5 -2.015625 L 0.984375 -0.796875 L -5.6875 -9.0625 L -4.390625 -10.109375 L 4.796875 -7.96875 L 0.125 -13.75 L 1.625 -14.96875 L 8.296875 -6.703125 L 7 -5.65625 L -2.171875 -7.796875 Z M 2.5 -2.015625 "/></g></g></g><g fill="#ffffff" fill-opacity="1"><g transform="translate(267.244503, 275.834501)"><g/></g></g><g clip-path="url(#72b759c22a)"><g clip-path="url(#06dd0fce41)"><g clip-path="url(#17a5b5a851)"><path fill="#ffffff" d="M 159.628906 300.460938 L 160.132812 298.304688 C 221.648438 312.703125 283.40625 274.371094 297.804688 212.859375 C 312.203125 151.34375 273.871094 89.582031 212.351562 75.183594 L 212.855469 73.03125 C 243.230469 80.140625 269.023438 98.648438 285.472656 125.15625 C 301.921875 151.660156 307.070312 182.984375 299.960938 213.363281 C 292.847656 243.742188 274.335938 269.523438 247.832031 285.972656 C 221.328125 302.421875 190 307.570312 159.628906 300.460938 Z M 159.628906 300.460938 " fill-opacity="1" fill-rule="nonzero"/></g></g></g></svg>