<svg xmlns="http://www.w3.org/2000/svg" xmlns:xlink="http://www.w3.org/1999/xlink" width="500" zoomAndPan="magnify" viewBox="0 0 375 374.999991" height="500" preserveAspectRatio="xMidYMid meet" version="1.0"><defs><g/><clipPath id="4db46c557e"><path d="M 104 139 L 158 139 L 158 251 L 104 251 Z M 104 139 " clip-rule="nonzero"/></clipPath><clipPath id="50880ad656"><path d="M 170.296875 149.808594 L 146.710938 250.585938 L 104.355469 240.671875 L 127.941406 139.894531 Z M 170.296875 149.808594 " clip-rule="nonzero"/></clipPath><clipPath id="8eb9690908"><path d="M 172.125 144.117188 L 139.992188 281.40625 L 71.347656 265.339844 L 103.476562 128.050781 Z M 172.125 144.117188 " clip-rule="nonzero"/></clipPath><clipPath id="56f91daf48"><path d="M 28.507812 137.328125 L 148.046875 137.328125 L 148.046875 256.867188 L 28.507812 256.867188 Z M 28.507812 137.328125 " clip-rule="nonzero"/></clipPath><clipPath id="04bd192c47"><path d="M 88.277344 137.328125 C 55.265625 137.328125 28.507812 164.085938 28.507812 197.097656 C 28.507812 230.105469 55.265625 256.867188 88.277344 256.867188 C 121.285156 256.867188 148.046875 230.105469 148.046875 197.097656 C 148.046875 164.085938 121.285156 137.328125 88.277344 137.328125 Z M 88.277344 137.328125 " clip-rule="nonzero"/></clipPath><clipPath id="12d07aa31f"><path d="M 16 125 L 135 125 L 135 248 L 16 248 Z M 16 125 " clip-rule="nonzero"/></clipPath><clipPath id="2c97932f4e"><path d="M -13.089844 199.082031 L 83.746094 96.597656 L 134.992188 145.019531 L 38.152344 247.503906 Z M -13.089844 199.082031 " clip-rule="nonzero"/></clipPath><clipPath id="17d8477f4e"><path d="M -13.089844 199.082031 L 83.746094 96.597656 L 134.992188 145.019531 L 38.152344 247.503906 Z M -13.089844 199.082031 " clip-rule="nonzero"/></clipPath></defs><g clip-path="url(#4db46c557e)"><g clip-path="url(#50880ad656)"><g clip-path="url(#8eb9690908)"><path fill="#ffffff" d="M 71.476562 265.191406 L 71.78125 263.894531 C 108.867188 272.574219 146.097656 249.464844 154.777344 212.382812 C 163.453125 175.300781 140.347656 138.070312 103.261719 129.390625 L 103.566406 128.089844 C 121.875 132.375 137.425781 143.535156 147.339844 159.515625 C 157.257812 175.492188 160.359375 194.375 156.074219 212.6875 C 151.789062 231 140.628906 246.542969 124.652344 256.457031 C 108.675781 266.375 89.789062 269.476562 71.476562 265.191406 Z M 71.476562 265.191406 " fill-opacity="1" fill-rule="nonzero"/></g></g></g><g clip-path="url(#56f91daf48)"><g clip-path="url(#04bd192c47)"><path fill="#ffffff" d="M 28.507812 137.328125 L 148.046875 137.328125 L 148.046875 256.867188 L 28.507812 256.867188 Z M 28.507812 137.328125 " fill-opacity="1" fill-rule="nonzero"/></g></g><g fill="#000000" fill-opacity="1"><g transform="translate(39.03935, 219.465266)"><g><path d="M 53.15625 -15.09375 C 53.445312 -14.945312 53.539062 -14.707031 53.4375 -14.375 C 53.394531 -14.226562 53.070312 -13.597656 52.46875 -12.484375 C 51.863281 -11.378906 51.066406 -10.03125 50.078125 -8.4375 C 49.097656 -6.851562 47.96875 -5.21875 46.6875 -3.53125 C 45.414062 -1.851562 44.054688 -0.363281 42.609375 0.9375 L 42.609375 1.015625 L 42.53125 1.015625 C 41.476562 1.972656 40.359375 2.765625 39.171875 3.390625 C 37.992188 4.015625 36.828125 4.328125 35.671875 4.328125 L 34.953125 4.328125 C 33.796875 4.179688 32.859375 3.535156 32.140625 2.390625 C 31.023438 0.703125 30.429688 -2.039062 30.359375 -5.84375 C 30.296875 -9.65625 30.625 -14.039062 31.34375 -19 C 30.382812 -18.851562 29.429688 -18.71875 28.484375 -18.59375 C 27.546875 -18.476562 26.597656 -18.367188 25.640625 -18.265625 L 23.828125 -18.046875 C 21.421875 -13.617188 19.234375 -10.035156 17.265625 -7.296875 C 14.992188 -4.066406 13.003906 -1.898438 11.296875 -0.796875 C 9.585938 0.304688 7.960938 0.859375 6.421875 0.859375 C 6.234375 0.859375 6.039062 0.847656 5.84375 0.828125 C 5.65625 0.804688 5.441406 0.796875 5.203125 0.796875 C 2.742188 0.503906 1.128906 -0.675781 0.359375 -2.75 C -0.0664062 -4 -0.09375 -5.304688 0.28125 -6.671875 C 0.664062 -8.046875 1.390625 -9.335938 2.453125 -10.546875 C 4.378906 -12.617188 6.4375 -14.207031 8.625 -15.3125 C 10.820312 -16.414062 13.144531 -17.242188 15.59375 -17.796875 C 18.050781 -18.347656 20.582031 -18.769531 23.1875 -19.0625 C 25.25 -22.863281 27.53125 -27.328125 30.03125 -32.453125 C 32.539062 -37.585938 35.289062 -43.453125 38.28125 -50.046875 C 38.46875 -50.722656 38.65625 -51.394531 38.84375 -52.0625 C 39.039062 -52.738281 39.238281 -53.390625 39.4375 -54.015625 C 39.570312 -54.691406 39.976562 -55.101562 40.65625 -55.25 C 41.382812 -55.394531 41.960938 -55.25 42.390625 -54.8125 L 42.890625 -54.3125 C 44.429688 -52.863281 44.890625 -51.082031 44.265625 -48.96875 C 43.597656 -46.75 42.863281 -44.132812 42.0625 -41.125 C 41.269531 -38.113281 40.476562 -34.910156 39.6875 -31.515625 C 38.894531 -28.128906 38.160156 -24.75 37.484375 -21.375 C 39.066406 -21.8125 40.628906 -22.363281 42.171875 -23.03125 C 43.710938 -23.707031 45.207031 -24.53125 46.65625 -25.5 C 46.988281 -25.6875 47.226562 -25.632812 47.375 -25.34375 C 47.664062 -25.0625 47.617188 -24.820312 47.234375 -24.625 C 45.640625 -23.5625 44.007812 -22.671875 42.34375 -21.953125 C 40.6875 -21.234375 38.992188 -20.65625 37.265625 -20.21875 L 37.046875 -18.703125 C 36.328125 -14.515625 35.878906 -11.128906 35.703125 -8.546875 C 35.535156 -5.972656 35.535156 -3.988281 35.703125 -2.59375 C 35.878906 -1.195312 36.125 -0.222656 36.4375 0.328125 C 36.75 0.878906 37.050781 1.203125 37.34375 1.296875 C 38.0625 1.585938 38.769531 1.625 39.46875 1.40625 C 40.164062 1.1875 40.742188 0.921875 41.203125 0.609375 C 41.660156 0.296875 41.890625 0.140625 41.890625 0.140625 C 41.929688 0.140625 41.953125 0.117188 41.953125 0.078125 C 43.347656 -1.222656 44.671875 -2.703125 45.921875 -4.359375 C 47.179688 -6.023438 48.289062 -7.648438 49.25 -9.234375 C 50.21875 -10.828125 50.988281 -12.140625 51.5625 -13.171875 C 52.144531 -14.210938 52.4375 -14.757812 52.4375 -14.8125 C 52.570312 -15.09375 52.8125 -15.1875 53.15625 -15.09375 Z M 16.390625 -7.875 C 18.222656 -10.425781 20.269531 -13.769531 22.53125 -17.90625 C 18.875 -17.425781 15.40625 -16.664062 12.125 -15.625 C 8.851562 -14.59375 5.894531 -12.660156 3.25 -9.828125 C 2.332031 -8.765625 1.703125 -7.628906 1.359375 -6.421875 C 1.023438 -5.222656 1.03125 -4.117188 1.375 -3.109375 C 2 -1.472656 3.320312 -0.53125 5.34375 -0.28125 C 6.445312 -0.144531 7.53125 -0.234375 8.59375 -0.546875 C 9.65625 -0.859375 10.820312 -1.578125 12.09375 -2.703125 C 13.375 -3.835938 14.804688 -5.5625 16.390625 -7.875 Z M 31.484375 -20.15625 C 32.015625 -23.757812 32.703125 -27.554688 33.546875 -31.546875 C 34.390625 -35.546875 35.335938 -39.546875 36.390625 -43.546875 C 34.128906 -38.585938 32 -34.070312 30 -30 C 28.007812 -25.9375 26.171875 -22.335938 24.484375 -19.203125 L 25.5625 -19.359375 C 26.53125 -19.453125 27.503906 -19.554688 28.484375 -19.671875 C 29.472656 -19.796875 30.472656 -19.957031 31.484375 -20.15625 Z M 31.484375 -20.15625 "/></g></g></g><g fill="#000000" fill-opacity="1"><g transform="translate(91.255458, 219.465266)"><g><path d="M 37.84375 -44.203125 C 37.988281 -44.003906 37.988281 -43.8125 37.84375 -43.625 L 35.25 -39.359375 C 35.101562 -39.210938 34.929688 -39.140625 34.734375 -39.140625 C 34.546875 -39.140625 34.398438 -39.238281 34.296875 -39.4375 C 33.671875 -40.78125 32.863281 -42.148438 31.875 -43.546875 C 30.894531 -44.941406 29.707031 -45.804688 28.3125 -46.140625 C 27.007812 -46.484375 25.566406 -46.101562 23.984375 -45 C 22.148438 -43.351562 20.328125 -41.289062 18.515625 -38.8125 C 16.710938 -36.332031 15.066406 -33.742188 13.578125 -31.046875 C 12.085938 -28.359375 10.8125 -25.832031 9.75 -23.46875 C 11.144531 -25.59375 12.816406 -27.554688 14.765625 -29.359375 C 16.710938 -31.160156 18.675781 -32.28125 20.65625 -32.71875 C 22.289062 -33.144531 23.710938 -32.90625 24.921875 -32 C 26.117188 -31.125 26.765625 -29.960938 26.859375 -28.515625 C 26.960938 -27.078125 26.75 -25.46875 26.21875 -23.6875 C 25.6875 -21.90625 25.0625 -20.050781 24.34375 -18.125 C 24.050781 -17.351562 23.769531 -16.582031 23.5 -15.8125 C 23.238281 -15.039062 22.988281 -14.269531 22.75 -13.5 C 21.78125 -10.425781 21.210938 -7.769531 21.046875 -5.53125 C 20.878906 -3.289062 21.109375 -1.757812 21.734375 -0.9375 C 21.972656 -0.550781 22.40625 -0.359375 23.03125 -0.359375 C 23.132812 -0.359375 23.234375 -0.367188 23.328125 -0.390625 C 23.421875 -0.421875 23.515625 -0.457031 23.609375 -0.5 C 23.660156 -0.5 23.710938 -0.523438 23.765625 -0.578125 C 24.867188 -1.109375 26.296875 -2.597656 28.046875 -5.046875 C 29.804688 -7.503906 31.75 -10.734375 33.875 -14.734375 C 34.0625 -15.023438 34.300781 -15.097656 34.59375 -14.953125 C 34.925781 -14.753906 35 -14.515625 34.8125 -14.234375 C 33.75 -12.253906 32.601562 -10.226562 31.375 -8.15625 C 30.144531 -6.09375 28.90625 -4.289062 27.65625 -2.75 C 26.40625 -1.207031 25.25 -0.171875 24.1875 0.359375 L 24.1875 0.4375 C 23.519531 0.863281 22.628906 1.078125 21.515625 1.078125 C 20.992188 1.078125 20.46875 1.003906 19.9375 0.859375 C 18.488281 0.523438 17.425781 -0.335938 16.75 -1.734375 C 16.320312 -2.648438 16.070312 -3.804688 16 -5.203125 C 15.925781 -6.597656 16.1875 -8.484375 16.78125 -10.859375 C 17.382812 -13.242188 18.4375 -16.34375 19.9375 -20.15625 C 21.226562 -23.425781 21.992188 -26.023438 22.234375 -27.953125 C 22.484375 -29.878906 22.390625 -31.082031 21.953125 -31.5625 C 21.898438 -31.65625 21.789062 -31.722656 21.625 -31.765625 C 21.457031 -31.816406 21.207031 -31.796875 20.875 -31.703125 L 20.734375 -31.703125 C 19.472656 -31.367188 18.132812 -30.660156 16.71875 -29.578125 C 15.300781 -28.492188 13.925781 -27.15625 12.59375 -25.5625 C 11.269531 -23.976562 10.128906 -22.269531 9.171875 -20.4375 C 8.253906 -15.144531 7.445312 -11.085938 6.75 -8.265625 C 6.050781 -5.453125 5.679688 -3.945312 5.640625 -3.75 C 5.390625 -2.976562 4.976562 -2.332031 4.40625 -1.8125 C 3.726562 -1.132812 2.835938 -0.578125 1.734375 -0.140625 C 1.535156 -0.046875 1.367188 0 1.234375 0 C 0.890625 0 0.597656 -0.117188 0.359375 -0.359375 C 0.0234375 -0.742188 -0.0664062 -1.175781 0.078125 -1.65625 C 0.742188 -3.289062 1.390625 -5.410156 2.015625 -8.015625 C 2.648438 -10.617188 3.242188 -13.519531 3.796875 -16.71875 C 4.347656 -19.914062 4.875 -23.234375 5.375 -26.671875 C 5.882812 -30.117188 6.332031 -33.515625 6.71875 -36.859375 C 7.101562 -40.210938 7.414062 -43.34375 7.65625 -46.25 C 7.894531 -49.164062 8.0625 -51.660156 8.15625 -53.734375 C 8.257812 -54.304688 8.523438 -54.710938 8.953125 -54.953125 C 9.191406 -55.097656 9.429688 -55.171875 9.671875 -55.171875 C 10.015625 -55.171875 10.28125 -55.097656 10.46875 -54.953125 L 11.84375 -54.09375 C 12.945312 -53.375 13.425781 -52.335938 13.28125 -50.984375 C 12.851562 -46.359375 12.382812 -42.0625 11.875 -38.09375 C 11.375 -34.125 10.859375 -30.5 10.328125 -27.21875 C 11.335938 -29.25 12.515625 -31.40625 13.859375 -33.6875 C 15.210938 -35.976562 16.679688 -38.179688 18.265625 -40.296875 C 19.859375 -42.410156 21.5 -44.21875 23.1875 -45.71875 C 23.226562 -45.71875 23.25 -45.726562 23.25 -45.75 C 23.25 -45.769531 23.25 -45.78125 23.25 -45.78125 L 23.328125 -45.78125 C 24.523438 -46.84375 25.710938 -47.695312 26.890625 -48.34375 C 28.078125 -49 29.269531 -49.347656 30.46875 -49.390625 C 33.40625 -49.535156 35.863281 -47.804688 37.84375 -44.203125 Z M 37.84375 -44.203125 "/></g></g></g><g clip-path="url(#12d07aa31f)"><g clip-path="url(#2c97932f4e)"><g clip-path="url(#17d8477f4e)"><path fill="#ffffff" d="M 134.800781 145.078125 L 133.886719 146.046875 C 106.203125 119.890625 62.402344 121.132812 36.246094 148.8125 C 10.089844 176.492188 11.328125 220.296875 39.011719 246.453125 L 38.09375 247.425781 C 24.425781 234.507812 16.605469 217.042969 16.074219 198.242188 C 15.539062 179.445312 22.359375 161.566406 35.277344 147.898438 C 48.191406 134.226562 65.65625 126.410156 84.453125 125.875 C 103.25 125.34375 121.132812 132.164062 134.800781 145.078125 Z M 134.800781 145.078125 " fill-opacity="1" fill-rule="nonzero"/></g></g></g><g fill="#ffffff" fill-opacity="1"><g transform="translate(38.804035, 248.849279)"><g><path d="M 4.890625 4.265625 L 3.953125 3.453125 L 4.375 2.1875 L 2.15625 0.25 L 0.96875 0.84375 L 0.03125 0.03125 L 6.25 -3.046875 L 7.09375 -2.3125 Z M 5.53125 -1.4375 L 3.09375 -0.234375 L 4.71875 1.171875 L 5.59375 -1.390625 L 5.671875 -1.546875 Z M 5.53125 -1.4375 "/></g></g></g><g fill="#ffffff" fill-opacity="1"><g transform="translate(43.897803, 253.333157)"><g><path d="M 1.578125 1.109375 L 0.625 0.4375 L 4.3125 -4.796875 L 5.140625 -4.203125 L 5.234375 -0.5 L 8.765625 -1.65625 L 9.609375 -1.078125 L 5.921875 4.15625 L 4.953125 3.484375 L 7.5625 -0.21875 L 4.484375 0.828125 L 4.21875 0.640625 L 4.1875 -2.59375 Z M 1.578125 1.109375 "/></g></g></g><g fill="#ffffff" fill-opacity="1"><g transform="translate(50.671691, 258.044186)"><g><path d="M 2.90625 1.765625 C 2.5625 1.578125 2.269531 1.347656 2.03125 1.078125 C 1.800781 0.816406 1.628906 0.523438 1.515625 0.203125 C 1.410156 -0.117188 1.378906 -0.453125 1.421875 -0.796875 C 1.460938 -1.148438 1.582031 -1.5 1.78125 -1.84375 L 3.6875 -5.28125 L 4.6875 -4.71875 L 2.828125 -1.359375 C 2.679688 -1.097656 2.601562 -0.832031 2.59375 -0.5625 C 2.582031 -0.289062 2.640625 -0.0351562 2.765625 0.203125 C 2.898438 0.453125 3.117188 0.660156 3.421875 0.828125 C 3.703125 0.984375 3.976562 1.054688 4.25 1.046875 C 4.519531 1.035156 4.769531 0.953125 5 0.796875 C 5.238281 0.640625 5.429688 0.429688 5.578125 0.171875 L 7.4375 -3.1875 L 8.46875 -2.625 L 6.5625 0.8125 C 6.375 1.132812 6.144531 1.40625 5.875 1.625 C 5.601562 1.84375 5.304688 1.992188 4.984375 2.078125 C 4.660156 2.160156 4.316406 2.175781 3.953125 2.125 C 3.597656 2.082031 3.25 1.960938 2.90625 1.765625 Z M 2.90625 1.765625 "/></g></g></g><g fill="#ffffff" fill-opacity="1"><g transform="translate(56.796037, 261.420436)"><g><path d="M 8.03125 -3.484375 L 4.796875 -1.78125 L 5.765625 2.515625 L 4.5 1.96875 L 3.765625 -1.3125 L 2.375 -0.578125 L 1.78125 0.78125 L 0.703125 0.3125 L 3.265625 -5.5625 L 4.34375 -5.09375 L 3 -2 L 6.78125 -4.03125 Z M 8.03125 -3.484375 "/></g></g></g><g fill="#ffffff" fill-opacity="1"><g transform="translate(62.795677, 263.972872)"><g><path d="M 1.828125 0.65625 L 0.71875 0.265625 L 2.890625 -5.765625 L 4 -5.375 Z M 1.828125 0.65625 "/></g></g></g><g fill="#ffffff" fill-opacity="1"><g transform="translate(65.472905, 265.042205)"><g><path d="M 1.875 0.515625 L 0.734375 0.203125 L 2.4375 -5.96875 L 3.421875 -5.703125 L 4.75 -2.234375 L 7.703125 -4.515625 L 8.671875 -4.25 L 6.96875 1.921875 L 5.84375 1.609375 L 7.046875 -2.765625 L 4.5 -0.734375 L 4.203125 -0.828125 L 3.078125 -3.859375 Z M 1.875 0.515625 "/></g></g></g><g fill="#ffffff" fill-opacity="1"><g transform="translate(73.376733, 267.111641)"><g/></g></g><g fill="#ffffff" fill-opacity="1"><g transform="translate(75.811391, 267.640879)"><g><path d="M 1.921875 0.265625 L 0.765625 0.109375 L 1.640625 -6.234375 L 4.296875 -5.875 C 4.617188 -5.832031 4.90625 -5.738281 5.15625 -5.59375 C 5.414062 -5.445312 5.628906 -5.265625 5.796875 -5.046875 C 5.972656 -4.828125 6.097656 -4.582031 6.171875 -4.3125 C 6.242188 -4.039062 6.257812 -3.75 6.21875 -3.4375 C 6.175781 -3.113281 6.082031 -2.820312 5.9375 -2.5625 C 5.789062 -2.300781 5.601562 -2.09375 5.375 -1.9375 C 5.15625 -1.78125 4.90625 -1.664062 4.625 -1.59375 C 4.34375 -1.53125 4.046875 -1.519531 3.734375 -1.5625 L 2.203125 -1.765625 Z M 2.65625 -5.046875 L 2.34375 -2.796875 L 3.8125 -2.59375 C 4.019531 -2.570312 4.207031 -2.597656 4.375 -2.671875 C 4.539062 -2.742188 4.6875 -2.863281 4.8125 -3.03125 C 4.9375 -3.195312 5.015625 -3.382812 5.046875 -3.59375 C 5.066406 -3.78125 5.039062 -3.960938 4.96875 -4.140625 C 4.894531 -4.328125 4.785156 -4.484375 4.640625 -4.609375 C 4.492188 -4.742188 4.316406 -4.820312 4.109375 -4.84375 Z M 2.65625 -5.046875 "/></g></g></g><g fill="#ffffff" fill-opacity="1"><g transform="translate(81.79149, 268.457644)"><g><path d="M 1.9375 0.09375 L 0.765625 0.03125 L 1.09375 -6.359375 L 3.859375 -6.21875 C 4.179688 -6.195312 4.472656 -6.128906 4.734375 -6.015625 C 5.003906 -5.910156 5.234375 -5.757812 5.421875 -5.5625 C 5.609375 -5.375 5.75 -5.148438 5.84375 -4.890625 C 5.9375 -4.628906 5.976562 -4.34375 5.96875 -4.03125 C 5.945312 -3.726562 5.875 -3.457031 5.75 -3.21875 C 5.632812 -2.976562 5.472656 -2.769531 5.265625 -2.59375 C 5.066406 -2.425781 4.832031 -2.304688 4.5625 -2.234375 L 5.890625 0.296875 L 4.546875 0.234375 L 3.390625 -2.109375 C 3.347656 -2.109375 3.304688 -2.109375 3.265625 -2.109375 C 3.222656 -2.109375 3.179688 -2.109375 3.140625 -2.109375 L 2.046875 -2.171875 Z M 2.203125 -5.265625 L 2.09375 -3.15625 L 3.640625 -3.078125 C 3.847656 -3.078125 4.035156 -3.113281 4.203125 -3.1875 C 4.367188 -3.269531 4.503906 -3.382812 4.609375 -3.53125 C 4.722656 -3.6875 4.785156 -3.867188 4.796875 -4.078125 C 4.804688 -4.273438 4.765625 -4.453125 4.671875 -4.609375 C 4.578125 -4.773438 4.453125 -4.910156 4.296875 -5.015625 C 4.140625 -5.117188 3.957031 -5.175781 3.75 -5.1875 Z M 2.203125 -5.265625 "/></g></g></g><g fill="#ffffff" fill-opacity="1"><g transform="translate(88.118329, 268.799294)"><g><path d="M 3.765625 -0.046875 C 3.378906 -0.0234375 3.007812 -0.0625 2.65625 -0.15625 C 2.3125 -0.257812 1.992188 -0.40625 1.703125 -0.59375 C 1.410156 -0.78125 1.148438 -1.003906 0.921875 -1.265625 C 0.691406 -1.535156 0.507812 -1.835938 0.375 -2.171875 C 0.25 -2.503906 0.175781 -2.851562 0.15625 -3.21875 C 0.132812 -3.59375 0.171875 -3.945312 0.265625 -4.28125 C 0.367188 -4.625 0.519531 -4.941406 0.71875 -5.234375 C 0.925781 -5.523438 1.164062 -5.78125 1.4375 -6 C 1.71875 -6.21875 2.023438 -6.390625 2.359375 -6.515625 C 2.703125 -6.640625 3.066406 -6.710938 3.453125 -6.734375 C 3.828125 -6.742188 4.1875 -6.703125 4.53125 -6.609375 C 4.882812 -6.515625 5.210938 -6.375 5.515625 -6.1875 C 5.816406 -6 6.078125 -5.769531 6.296875 -5.5 C 6.515625 -5.226562 6.6875 -4.925781 6.8125 -4.59375 C 6.945312 -4.269531 7.023438 -3.921875 7.046875 -3.546875 C 7.066406 -3.179688 7.023438 -2.828125 6.921875 -2.484375 C 6.828125 -2.140625 6.679688 -1.820312 6.484375 -1.53125 C 6.296875 -1.25 6.054688 -1 5.765625 -0.78125 C 5.484375 -0.5625 5.171875 -0.382812 4.828125 -0.25 C 4.492188 -0.125 4.140625 -0.0546875 3.765625 -0.046875 Z M 3.71875 -1.125 C 4.03125 -1.132812 4.320312 -1.203125 4.59375 -1.328125 C 4.863281 -1.460938 5.097656 -1.632812 5.296875 -1.84375 C 5.503906 -2.0625 5.660156 -2.3125 5.765625 -2.59375 C 5.867188 -2.875 5.910156 -3.175781 5.890625 -3.5 C 5.878906 -3.820312 5.804688 -4.117188 5.671875 -4.390625 C 5.546875 -4.671875 5.367188 -4.90625 5.140625 -5.09375 C 4.921875 -5.289062 4.671875 -5.4375 4.390625 -5.53125 C 4.109375 -5.632812 3.8125 -5.679688 3.5 -5.671875 C 3.1875 -5.648438 2.894531 -5.578125 2.625 -5.453125 C 2.351562 -5.328125 2.113281 -5.15625 1.90625 -4.9375 C 1.707031 -4.726562 1.554688 -4.476562 1.453125 -4.1875 C 1.359375 -3.90625 1.316406 -3.601562 1.328125 -3.28125 C 1.347656 -2.957031 1.421875 -2.660156 1.546875 -2.390625 C 1.671875 -2.117188 1.84375 -1.882812 2.0625 -1.6875 C 2.289062 -1.5 2.546875 -1.351562 2.828125 -1.25 C 3.109375 -1.144531 3.40625 -1.101562 3.71875 -1.125 Z M 3.71875 -1.125 "/></g></g></g><g fill="#ffffff" fill-opacity="1"><g transform="translate(95.888485, 268.397578)"><g><path d="M 3.21875 -0.5 L 0.75 -0.109375 L -0.21875 -6.4375 L 2.234375 -6.8125 C 2.734375 -6.894531 3.195312 -6.894531 3.625 -6.8125 C 4.0625 -6.726562 4.445312 -6.566406 4.78125 -6.328125 C 5.125 -6.085938 5.40625 -5.785156 5.625 -5.421875 C 5.84375 -5.054688 5.988281 -4.640625 6.0625 -4.171875 C 6.132812 -3.691406 6.117188 -3.242188 6.015625 -2.828125 C 5.910156 -2.421875 5.734375 -2.054688 5.484375 -1.734375 C 5.242188 -1.410156 4.925781 -1.140625 4.53125 -0.921875 C 4.144531 -0.710938 3.707031 -0.570312 3.21875 -0.5 Z M 1.09375 -5.59375 L 1.75 -1.328125 L 3.015625 -1.515625 C 3.472656 -1.585938 3.851562 -1.734375 4.15625 -1.953125 C 4.46875 -2.179688 4.6875 -2.46875 4.8125 -2.8125 C 4.9375 -3.15625 4.96875 -3.546875 4.90625 -3.984375 C 4.84375 -4.410156 4.695312 -4.769531 4.46875 -5.0625 C 4.238281 -5.363281 3.945312 -5.578125 3.59375 -5.703125 C 3.238281 -5.828125 2.828125 -5.851562 2.359375 -5.78125 Z M 1.09375 -5.59375 "/></g></g></g><g fill="#ffffff" fill-opacity="1"><g transform="translate(102.990642, 267.290076)"><g><path d="M 3.3125 -0.703125 C 2.9375 -0.609375 2.570312 -0.578125 2.21875 -0.609375 C 1.875 -0.648438 1.550781 -0.75 1.25 -0.90625 C 0.957031 -1.0625 0.703125 -1.273438 0.484375 -1.546875 C 0.273438 -1.828125 0.125 -2.160156 0.03125 -2.546875 L -0.953125 -6.359375 L 0.15625 -6.65625 L 1.109375 -2.9375 C 1.179688 -2.644531 1.304688 -2.394531 1.484375 -2.1875 C 1.671875 -1.976562 1.894531 -1.832031 2.15625 -1.75 C 2.414062 -1.664062 2.710938 -1.664062 3.046875 -1.75 C 3.359375 -1.832031 3.609375 -1.96875 3.796875 -2.15625 C 3.992188 -2.351562 4.117188 -2.585938 4.171875 -2.859375 C 4.234375 -3.140625 4.226562 -3.425781 4.15625 -3.71875 L 3.203125 -7.4375 L 4.34375 -7.71875 L 5.328125 -3.90625 C 5.421875 -3.539062 5.441406 -3.1875 5.390625 -2.84375 C 5.335938 -2.507812 5.222656 -2.195312 5.046875 -1.90625 C 4.867188 -1.625 4.628906 -1.375 4.328125 -1.15625 C 4.035156 -0.945312 3.695312 -0.796875 3.3125 -0.703125 Z M 3.3125 -0.703125 "/></g></g></g><g fill="#ffffff" fill-opacity="1"><g transform="translate(109.777255, 265.544134)"><g><path d="M 3.515625 -1.140625 C 3.160156 -1.015625 2.804688 -0.941406 2.453125 -0.921875 C 2.097656 -0.910156 1.75 -0.953125 1.40625 -1.046875 C 1.070312 -1.148438 0.757812 -1.296875 0.46875 -1.484375 C 0.1875 -1.671875 -0.0625 -1.90625 -0.28125 -2.1875 C -0.5 -2.46875 -0.675781 -2.773438 -0.8125 -3.109375 C -0.9375 -3.460938 -1.003906 -3.8125 -1.015625 -4.15625 C -1.023438 -4.507812 -0.984375 -4.851562 -0.890625 -5.1875 C -0.796875 -5.53125 -0.648438 -5.84375 -0.453125 -6.125 C -0.253906 -6.414062 -0.015625 -6.671875 0.265625 -6.890625 C 0.546875 -7.109375 0.863281 -7.28125 1.21875 -7.40625 C 1.539062 -7.53125 1.875 -7.601562 2.21875 -7.625 C 2.5625 -7.65625 2.898438 -7.625 3.234375 -7.53125 C 3.578125 -7.4375 3.898438 -7.273438 4.203125 -7.046875 C 4.503906 -6.816406 4.757812 -6.507812 4.96875 -6.125 L 3.84375 -5.71875 C 3.65625 -6 3.4375 -6.207031 3.1875 -6.34375 C 2.9375 -6.476562 2.671875 -6.546875 2.390625 -6.546875 C 2.109375 -6.554688 1.828125 -6.515625 1.546875 -6.421875 C 1.253906 -6.316406 1.003906 -6.164062 0.796875 -5.96875 C 0.597656 -5.769531 0.4375 -5.539062 0.3125 -5.28125 C 0.195312 -5.019531 0.132812 -4.738281 0.125 -4.4375 C 0.113281 -4.144531 0.164062 -3.835938 0.28125 -3.515625 C 0.40625 -3.191406 0.566406 -2.914062 0.765625 -2.6875 C 0.960938 -2.46875 1.191406 -2.296875 1.453125 -2.171875 C 1.710938 -2.054688 1.976562 -1.992188 2.25 -1.984375 C 2.53125 -1.984375 2.816406 -2.035156 3.109375 -2.140625 C 3.390625 -2.234375 3.632812 -2.375 3.84375 -2.5625 C 4.050781 -2.757812 4.207031 -2.988281 4.3125 -3.25 C 4.425781 -3.507812 4.460938 -3.804688 4.421875 -4.140625 L 5.546875 -4.546875 C 5.628906 -4.117188 5.628906 -3.722656 5.546875 -3.359375 C 5.460938 -3.003906 5.320312 -2.679688 5.125 -2.390625 C 4.925781 -2.097656 4.6875 -1.847656 4.40625 -1.640625 C 4.132812 -1.429688 3.835938 -1.265625 3.515625 -1.140625 Z M 3.515625 -1.140625 "/></g></g></g><g fill="#ffffff" fill-opacity="1"><g transform="translate(116.624586, 262.983567)"><g><path d="M 2.96875 -1.40625 L 1.90625 -0.90625 L -0.375 -5.75 L -2.09375 -4.9375 L -2.546875 -5.890625 L 1.953125 -8.015625 L 2.40625 -7.0625 L 0.6875 -6.25 Z M 2.96875 -1.40625 "/></g></g></g><g fill="#ffffff" fill-opacity="1"><g transform="translate(121.601076, 260.585713)"><g><path d="M 1.703125 -0.921875 L 0.671875 -0.359375 L -2.390625 -5.984375 L -1.359375 -6.546875 Z M 1.703125 -0.921875 "/></g></g></g><g fill="#ffffff" fill-opacity="1"><g transform="translate(124.161781, 259.281487)"><g><path d="M 3.234375 -1.921875 C 2.910156 -1.710938 2.570312 -1.5625 2.21875 -1.46875 C 1.875 -1.382812 1.523438 -1.347656 1.171875 -1.359375 C 0.828125 -1.378906 0.488281 -1.445312 0.15625 -1.5625 C -0.175781 -1.675781 -0.476562 -1.84375 -0.75 -2.0625 C -1.03125 -2.289062 -1.269531 -2.554688 -1.46875 -2.859375 C -1.675781 -3.171875 -1.820312 -3.5 -1.90625 -3.84375 C -1.988281 -4.1875 -2.015625 -4.535156 -1.984375 -4.890625 C -1.960938 -5.242188 -1.882812 -5.582031 -1.75 -5.90625 C -1.625 -6.226562 -1.445312 -6.53125 -1.21875 -6.8125 C -0.988281 -7.09375 -0.710938 -7.335938 -0.390625 -7.546875 C -0.0664062 -7.742188 0.265625 -7.890625 0.609375 -7.984375 C 0.953125 -8.078125 1.300781 -8.117188 1.65625 -8.109375 C 2.007812 -8.097656 2.351562 -8.03125 2.6875 -7.90625 C 3.03125 -7.789062 3.335938 -7.625 3.609375 -7.40625 C 3.878906 -7.1875 4.117188 -6.921875 4.328125 -6.609375 C 4.523438 -6.304688 4.664062 -5.976562 4.75 -5.625 C 4.84375 -5.28125 4.875 -4.929688 4.84375 -4.578125 C 4.8125 -4.234375 4.726562 -3.894531 4.59375 -3.5625 C 4.457031 -3.238281 4.273438 -2.929688 4.046875 -2.640625 C 3.828125 -2.359375 3.554688 -2.117188 3.234375 -1.921875 Z M 2.640625 -2.828125 C 2.910156 -2.992188 3.128906 -3.203125 3.296875 -3.453125 C 3.472656 -3.703125 3.59375 -3.96875 3.65625 -4.25 C 3.726562 -4.539062 3.738281 -4.832031 3.6875 -5.125 C 3.632812 -5.414062 3.519531 -5.695312 3.34375 -5.96875 C 3.164062 -6.238281 2.953125 -6.460938 2.703125 -6.640625 C 2.460938 -6.816406 2.195312 -6.929688 1.90625 -6.984375 C 1.613281 -7.035156 1.320312 -7.035156 1.03125 -6.984375 C 0.738281 -6.929688 0.457031 -6.820312 0.1875 -6.65625 C -0.0703125 -6.476562 -0.285156 -6.265625 -0.453125 -6.015625 C -0.617188 -5.773438 -0.738281 -5.507812 -0.8125 -5.21875 C -0.882812 -4.9375 -0.890625 -4.644531 -0.828125 -4.34375 C -0.773438 -4.050781 -0.660156 -3.769531 -0.484375 -3.5 C -0.304688 -3.226562 -0.0976562 -3.003906 0.140625 -2.828125 C 0.378906 -2.660156 0.644531 -2.550781 0.9375 -2.5 C 1.238281 -2.445312 1.53125 -2.441406 1.8125 -2.484375 C 2.101562 -2.535156 2.378906 -2.648438 2.640625 -2.828125 Z M 2.640625 -2.828125 "/></g></g></g><g fill="#ffffff" fill-opacity="1"><g transform="translate(130.690267, 255.040186)"><g><path d="M 1.5 -1.21875 L 0.59375 -0.484375 L -3.4375 -5.46875 L -2.65625 -6.09375 L 2.890625 -4.8125 L 0.0625 -8.296875 L 0.96875 -9.015625 L 5 -4.03125 L 4.21875 -3.40625 L -1.3125 -4.703125 Z M 1.5 -1.21875 "/></g></g></g><g fill="#ffffff" fill-opacity="1"><g transform="translate(136.35367, 250.352774)"><g/></g></g><g fill="#ffffff" fill-opacity="1"><g transform="translate(161.601366, 189.019881)"><g><path d="M 19.53125 -1.234375 C 19.632812 -0.890625 19.742188 -0.539062 19.859375 -0.1875 C 19.984375 0.15625 20.175781 0.492188 20.4375 0.828125 C 20.6875 0.585938 20.898438 0.332031 21.078125 0.0625 C 21.253906 -0.195312 21.414062 -0.457031 21.5625 -0.71875 C 23.5 -4.320312 25.117188 -8.082031 26.421875 -12 C 26.472656 -12.144531 26.523438 -12.3125 26.578125 -12.5 C 26.671875 -12.863281 26.898438 -13 27.265625 -12.90625 C 27.378906 -12.851562 27.488281 -12.820312 27.59375 -12.8125 C 27.707031 -12.800781 27.828125 -12.785156 27.953125 -12.765625 C 28.378906 -12.660156 28.546875 -12.378906 28.453125 -11.921875 C 28.335938 -11.492188 28.210938 -11.054688 28.078125 -10.609375 C 27.941406 -10.160156 27.800781 -9.71875 27.65625 -9.28125 C 27.101562 -7.707031 26.503906 -6.144531 25.859375 -4.59375 C 25.222656 -3.050781 24.539062 -1.519531 23.8125 0 C 23.664062 0.289062 23.515625 0.570312 23.359375 0.84375 C 23.203125 1.125 23.03125 1.398438 22.84375 1.671875 C 22.332031 2.273438 21.675781 2.597656 20.875 2.640625 C 19.863281 2.691406 18.976562 2.523438 18.21875 2.140625 C 17.457031 1.753906 16.820312 1.101562 16.3125 0.1875 C 15.632812 -1.144531 15.050781 -2.5 14.5625 -3.875 C 14.082031 -5.25 13.675781 -6.648438 13.34375 -8.078125 C 13.101562 -9.066406 12.894531 -10.054688 12.71875 -11.046875 C 12.550781 -12.046875 12.40625 -13.039062 12.28125 -14.03125 C 12.238281 -14.46875 12.175781 -14.726562 12.09375 -14.8125 C 12.007812 -14.894531 11.738281 -14.957031 11.28125 -15 C 10.988281 -15.03125 10.703125 -15.054688 10.421875 -15.078125 C 10.140625 -15.097656 9.851562 -15.125 9.5625 -15.15625 C 9.15625 -15.195312 8.898438 -15.1875 8.796875 -15.125 C 8.703125 -15.070312 8.585938 -14.851562 8.453125 -14.46875 C 7.941406 -13.0625 7.445312 -11.644531 6.96875 -10.21875 C 6.5 -8.789062 6.035156 -7.351562 5.578125 -5.90625 C 5.316406 -5.039062 5.050781 -4.164062 4.78125 -3.28125 C 4.519531 -2.394531 4.242188 -1.503906 3.953125 -0.609375 C 3.828125 -0.179688 3.707031 0.203125 3.59375 0.546875 C 3.25 1.410156 2.664062 1.613281 1.84375 1.15625 C 1.65625 1.039062 1.582031 0.894531 1.625 0.71875 C 1.65625 0.601562 1.6875 0.476562 1.71875 0.34375 C 1.757812 0.207031 1.789062 0.0664062 1.8125 -0.078125 C 2.507812 -2.492188 3.234375 -4.910156 3.984375 -7.328125 C 4.734375 -9.742188 5.566406 -12.132812 6.484375 -14.5 C 6.515625 -14.570312 6.546875 -14.648438 6.578125 -14.734375 C 6.617188 -14.816406 6.648438 -14.894531 6.671875 -14.96875 C 6.765625 -15.238281 6.65625 -15.394531 6.34375 -15.4375 C 5.207031 -15.613281 4.09375 -15.644531 3 -15.53125 C 1.914062 -15.425781 0.867188 -15.070312 -0.140625 -14.46875 C -0.265625 -14.394531 -0.390625 -14.328125 -0.515625 -14.265625 C -0.648438 -14.203125 -0.789062 -14.132812 -0.9375 -14.0625 C -1.226562 -13.914062 -1.515625 -13.847656 -1.796875 -13.859375 C -2.078125 -13.878906 -2.359375 -13.9375 -2.640625 -14.03125 C -3.078125 -14.144531 -3.148438 -14.375 -2.859375 -14.71875 C -2.640625 -14.976562 -2.390625 -15.207031 -2.109375 -15.40625 C -0.679688 -16.445312 0.898438 -17.023438 2.640625 -17.140625 C 3.296875 -17.191406 3.957031 -17.210938 4.625 -17.203125 C 5.289062 -17.191406 5.960938 -17.125 6.640625 -17 C 7.171875 -16.925781 7.53125 -17.132812 7.71875 -17.625 C 8.414062 -19.5 9.144531 -21.359375 9.90625 -23.203125 C 10.675781 -25.054688 11.382812 -26.925781 12.03125 -28.8125 C 12.132812 -29.0625 12.207031 -29.289062 12.25 -29.5 C 12.445312 -30.082031 12.601562 -30.425781 12.71875 -30.53125 C 12.84375 -30.644531 13.207031 -30.703125 13.8125 -30.703125 C 14.414062 -30.703125 14.832031 -30.695312 15.0625 -30.6875 C 15.289062 -30.675781 15.4375 -30.5625 15.5 -30.34375 C 15.5625 -30.125 15.613281 -29.703125 15.65625 -29.078125 C 15.820312 -27.066406 15.988281 -25.0625 16.15625 -23.0625 C 16.332031 -21.070312 16.503906 -19.085938 16.671875 -17.109375 C 16.671875 -17.035156 16.679688 -16.957031 16.703125 -16.875 C 16.734375 -16.789062 16.75 -16.703125 16.75 -16.609375 C 16.769531 -16.140625 17.035156 -15.894531 17.546875 -15.875 C 18.097656 -15.875 18.65625 -15.863281 19.21875 -15.84375 C 19.789062 -15.820312 20.359375 -15.832031 20.921875 -15.875 C 21.109375 -15.894531 21.304688 -15.90625 21.515625 -15.90625 C 21.722656 -15.90625 21.921875 -15.859375 22.109375 -15.765625 C 22.234375 -15.691406 22.335938 -15.617188 22.421875 -15.546875 C 22.503906 -15.472656 22.546875 -15.363281 22.546875 -15.21875 C 22.546875 -15.101562 22.503906 -15.015625 22.421875 -14.953125 C 22.335938 -14.890625 22.25 -14.835938 22.15625 -14.796875 C 22.03125 -14.722656 21.890625 -14.671875 21.734375 -14.640625 C 21.578125 -14.617188 21.425781 -14.597656 21.28125 -14.578125 C 20.71875 -14.472656 20.148438 -14.421875 19.578125 -14.421875 C 19.015625 -14.421875 18.457031 -14.4375 17.90625 -14.46875 C 17.5 -14.46875 17.25 -14.421875 17.15625 -14.328125 C 17.070312 -14.242188 17.054688 -14 17.109375 -13.59375 C 17.398438 -11.507812 17.71875 -9.4375 18.0625 -7.375 C 18.414062 -5.3125 18.90625 -3.265625 19.53125 -1.234375 Z M 11.59375 -22.765625 C 11.207031 -21.773438 10.828125 -20.789062 10.453125 -19.8125 C 10.078125 -18.832031 9.695312 -17.847656 9.3125 -16.859375 C 9.675781 -16.710938 10.019531 -16.617188 10.34375 -16.578125 C 10.675781 -16.546875 11 -16.53125 11.3125 -16.53125 C 11.644531 -16.507812 11.84375 -16.523438 11.90625 -16.578125 C 11.96875 -16.640625 11.988281 -16.851562 11.96875 -17.21875 C 11.894531 -18.019531 11.847656 -18.828125 11.828125 -19.640625 C 11.816406 -20.460938 11.8125 -21.285156 11.8125 -22.109375 C 11.8125 -22.203125 11.816406 -22.3125 11.828125 -22.4375 C 11.847656 -22.5625 11.769531 -22.671875 11.59375 -22.765625 Z M 11.59375 -22.765625 "/></g></g></g><g fill="#ffffff" fill-opacity="1"><g transform="translate(187.698597, 189.019881)"><g><path d="M 28.59375 -10.84375 C 28.8125 -10.738281 28.910156 -10.617188 28.890625 -10.484375 C 28.867188 -10.359375 28.832031 -10.222656 28.78125 -10.078125 C 28.320312 -8.921875 27.84375 -7.765625 27.34375 -6.609375 C 26.851562 -5.460938 26.234375 -4.382812 25.484375 -3.375 C 25.335938 -3.175781 25.1875 -2.984375 25.03125 -2.796875 C 24.875 -2.617188 24.722656 -2.445312 24.578125 -2.28125 C 24.191406 -1.800781 23.695312 -1.507812 23.09375 -1.40625 C 22.488281 -1.3125 21.894531 -1.382812 21.3125 -1.625 C 20.726562 -1.875 20.28125 -2.300781 19.96875 -2.90625 C 19.675781 -3.4375 19.429688 -3.976562 19.234375 -4.53125 C 19.046875 -5.082031 18.878906 -5.648438 18.734375 -6.234375 C 18.597656 -6.890625 18.476562 -7.546875 18.375 -8.203125 C 18.28125 -8.867188 18.195312 -9.53125 18.125 -10.1875 C 18.050781 -10.695312 17.941406 -11.191406 17.796875 -11.671875 C 17.648438 -12.148438 17.394531 -12.222656 17.03125 -11.890625 C 16.675781 -11.523438 16.359375 -11.128906 16.078125 -10.703125 C 15.796875 -10.285156 15.546875 -9.835938 15.328125 -9.359375 C 14.867188 -8.222656 14.460938 -7.078125 14.109375 -5.921875 C 13.765625 -4.773438 13.472656 -3.597656 13.234375 -2.390625 C 13.140625 -1.878906 13.066406 -1.523438 13.015625 -1.328125 C 12.960938 -1.140625 12.832031 -1.039062 12.625 -1.03125 C 12.425781 -1.019531 12.035156 -1.039062 11.453125 -1.09375 C 11.015625 -1.113281 10.753906 -1.164062 10.671875 -1.25 C 10.585938 -1.332031 10.546875 -1.601562 10.546875 -2.0625 C 10.546875 -3.101562 10.546875 -4.15625 10.546875 -5.21875 C 10.546875 -6.28125 10.546875 -7.34375 10.546875 -8.40625 C 10.546875 -9.539062 10.503906 -10.679688 10.421875 -11.828125 C 10.335938 -12.984375 10.160156 -14.113281 9.890625 -15.21875 C 9.816406 -15.5625 9.734375 -15.894531 9.640625 -16.21875 C 9.546875 -16.550781 9.414062 -16.875 9.25 -17.1875 C 8.925781 -17.738281 8.5 -17.820312 7.96875 -17.4375 C 7.820312 -17.34375 7.6875 -17.222656 7.5625 -17.078125 C 7.445312 -16.929688 7.332031 -16.785156 7.21875 -16.640625 C 6.925781 -16.222656 6.671875 -15.789062 6.453125 -15.34375 C 6.234375 -14.90625 6.039062 -14.457031 5.875 -14 C 5.269531 -12.207031 4.71875 -10.410156 4.21875 -8.609375 C 3.726562 -6.804688 3.445312 -4.953125 3.375 -3.046875 C 3.375 -2.703125 3.347656 -2.359375 3.296875 -2.015625 C 3.242188 -1.679688 3.207031 -1.347656 3.1875 -1.015625 C 3.164062 -0.671875 3.113281 -0.457031 3.03125 -0.375 C 2.945312 -0.289062 2.734375 -0.25 2.390625 -0.25 C 1.910156 -0.226562 1.390625 -0.242188 0.828125 -0.296875 C 0.472656 -0.296875 0.242188 -0.335938 0.140625 -0.421875 C 0.046875 -0.503906 -0.0351562 -0.726562 -0.109375 -1.09375 C -0.234375 -1.71875 -0.320312 -2.34375 -0.375 -2.96875 C -0.4375 -3.601562 -0.476562 -4.234375 -0.5 -4.859375 C -0.625 -7.253906 -0.617188 -9.640625 -0.484375 -12.015625 C -0.359375 -14.398438 -0.113281 -16.773438 0.25 -19.140625 C 0.28125 -19.234375 0.300781 -19.320312 0.3125 -19.40625 C 0.320312 -19.488281 0.335938 -19.566406 0.359375 -19.640625 C 0.429688 -20.171875 0.722656 -20.425781 1.234375 -20.40625 C 1.472656 -20.40625 1.707031 -20.421875 1.9375 -20.453125 C 2.164062 -20.492188 2.398438 -20.515625 2.640625 -20.515625 C 3.097656 -20.535156 3.367188 -20.507812 3.453125 -20.4375 C 3.546875 -20.375 3.601562 -20.109375 3.625 -19.640625 C 3.675781 -19.066406 3.710938 -18.488281 3.734375 -17.90625 C 3.753906 -17.320312 3.753906 -16.742188 3.734375 -16.171875 C 3.734375 -16.097656 3.734375 -16.007812 3.734375 -15.90625 C 3.734375 -15.8125 3.734375 -15.691406 3.734375 -15.546875 C 3.929688 -15.671875 4.0625 -15.804688 4.125 -15.953125 C 4.195312 -16.097656 4.285156 -16.226562 4.390625 -16.34375 C 4.722656 -16.832031 5.085938 -17.28125 5.484375 -17.6875 C 5.890625 -18.101562 6.359375 -18.453125 6.890625 -18.734375 C 7.972656 -19.367188 9.015625 -19.507812 10.015625 -19.15625 C 11.023438 -18.800781 11.769531 -18.046875 12.25 -16.890625 C 12.488281 -16.265625 12.671875 -15.632812 12.796875 -15 C 12.921875 -14.375 13.003906 -13.738281 13.046875 -13.09375 C 13.097656 -12.601562 13.140625 -12.109375 13.171875 -11.609375 C 13.210938 -11.117188 13.242188 -10.617188 13.265625 -10.109375 C 13.460938 -10.179688 13.597656 -10.289062 13.671875 -10.4375 C 13.742188 -10.582031 13.816406 -10.71875 13.890625 -10.84375 C 14.148438 -11.25 14.425781 -11.640625 14.71875 -12.015625 C 15.007812 -12.390625 15.320312 -12.75 15.65625 -13.09375 C 15.800781 -13.207031 15.945312 -13.320312 16.09375 -13.4375 C 16.238281 -13.5625 16.382812 -13.6875 16.53125 -13.8125 C 17.46875 -14.414062 18.328125 -14.566406 19.109375 -14.265625 C 19.898438 -13.960938 20.441406 -13.28125 20.734375 -12.21875 C 20.898438 -11.65625 21.019531 -11.097656 21.09375 -10.546875 C 21.164062 -9.992188 21.21875 -9.4375 21.25 -8.875 C 21.25 -8.101562 21.296875 -7.335938 21.390625 -6.578125 C 21.484375 -5.816406 21.59375 -5.050781 21.71875 -4.28125 C 21.757812 -4.007812 21.828125 -3.75 21.921875 -3.5 C 22.023438 -3.25 22.171875 -3.023438 22.359375 -2.828125 C 22.628906 -2.515625 22.921875 -2.476562 23.234375 -2.71875 C 23.429688 -2.863281 23.59375 -3.019531 23.71875 -3.1875 C 23.851562 -3.351562 23.984375 -3.535156 24.109375 -3.734375 C 24.710938 -4.628906 25.253906 -5.554688 25.734375 -6.515625 C 26.222656 -7.484375 26.695312 -8.453125 27.15625 -9.421875 C 27.25 -9.585938 27.335938 -9.769531 27.421875 -9.96875 C 27.503906 -10.164062 27.59375 -10.359375 27.6875 -10.546875 C 27.789062 -10.765625 27.921875 -10.882812 28.078125 -10.90625 C 28.234375 -10.9375 28.40625 -10.914062 28.59375 -10.84375 Z M 28.59375 -10.84375 "/></g></g></g><g fill="#ffffff" fill-opacity="1"><g transform="translate(215.245668, 189.019881)"><g><path d="M 10.984375 -10.109375 C 10.984375 -10.066406 10.972656 -10.03125 10.953125 -10 C 10.773438 -9.882812 10.660156 -9.75 10.609375 -9.59375 C 10.566406 -9.4375 10.507812 -9.285156 10.4375 -9.140625 C 10.144531 -8.460938 9.851562 -7.785156 9.5625 -7.109375 C 9.28125 -6.429688 8.992188 -5.753906 8.703125 -5.078125 C 8.335938 -4.273438 7.890625 -3.550781 7.359375 -2.90625 C 6.804688 -2.195312 6.050781 -1.734375 5.09375 -1.515625 C 4.132812 -1.304688 3.257812 -1.394531 2.46875 -1.78125 C 2.125 -1.945312 1.847656 -2.160156 1.640625 -2.421875 C 1.441406 -2.691406 1.269531 -2.984375 1.125 -3.296875 C 0.832031 -3.921875 0.625 -4.570312 0.5 -5.25 C 0.382812 -5.925781 0.300781 -6.601562 0.25 -7.28125 C 0.175781 -9.070312 0.171875 -10.859375 0.234375 -12.640625 C 0.296875 -14.429688 0.4375 -16.222656 0.65625 -18.015625 C 0.675781 -18.160156 0.703125 -18.296875 0.734375 -18.421875 C 0.773438 -18.554688 0.796875 -18.6875 0.796875 -18.8125 C 0.847656 -19.082031 1.019531 -19.226562 1.3125 -19.25 C 1.695312 -19.300781 2.09375 -19.34375 2.5 -19.375 C 2.914062 -19.414062 3.328125 -19.445312 3.734375 -19.46875 C 4.046875 -19.46875 4.242188 -19.429688 4.328125 -19.359375 C 4.410156 -19.285156 4.441406 -19.078125 4.421875 -18.734375 C 4.367188 -17.867188 4.320312 -17 4.28125 -16.125 C 4.25 -15.257812 4.195312 -14.390625 4.125 -13.515625 C 4.007812 -12.210938 3.914062 -10.910156 3.84375 -9.609375 C 3.769531 -8.304688 3.816406 -6.988281 3.984375 -5.65625 C 4.035156 -5.289062 4.085938 -4.929688 4.140625 -4.578125 C 4.203125 -4.234375 4.320312 -3.90625 4.5 -3.59375 C 4.71875 -3.082031 5.03125 -3.019531 5.4375 -3.40625 C 5.5625 -3.550781 5.671875 -3.703125 5.765625 -3.859375 C 5.859375 -4.015625 5.953125 -4.175781 6.046875 -4.34375 C 6.703125 -5.457031 7.273438 -6.597656 7.765625 -7.765625 C 8.265625 -8.941406 8.757812 -10.132812 9.25 -11.34375 C 9.632812 -12.3125 10.023438 -13.269531 10.421875 -14.21875 C 10.816406 -15.175781 11.207031 -16.148438 11.59375 -17.140625 C 11.695312 -17.410156 11.832031 -17.609375 12 -17.734375 C 12.164062 -17.867188 12.40625 -17.925781 12.71875 -17.90625 C 12.96875 -17.882812 13.210938 -17.890625 13.453125 -17.921875 C 13.691406 -17.960938 13.929688 -17.992188 14.171875 -18.015625 C 14.609375 -18.035156 14.851562 -17.832031 14.90625 -17.40625 C 14.96875 -16.769531 14.988281 -16.148438 14.96875 -15.546875 C 14.875 -13.328125 14.726562 -11.109375 14.53125 -8.890625 C 14.34375 -6.679688 14.234375 -4.46875 14.203125 -2.25 C 14.203125 -1.71875 14.207031 -1.171875 14.21875 -0.609375 C 14.238281 -0.0546875 14.25 0.484375 14.25 1.015625 C 14.25 1.253906 14.265625 1.492188 14.296875 1.734375 C 14.335938 1.984375 14.40625 2.226562 14.5 2.46875 C 14.71875 2.269531 14.863281 2.054688 14.9375 1.828125 C 15.007812 1.597656 15.082031 1.375 15.15625 1.15625 C 15.613281 -0.21875 16.066406 -1.582031 16.515625 -2.9375 C 16.960938 -4.289062 17.414062 -5.65625 17.875 -7.03125 C 17.945312 -7.226562 18.019531 -7.429688 18.09375 -7.640625 C 18.164062 -7.859375 18.238281 -8.066406 18.3125 -8.265625 C 18.425781 -8.628906 18.691406 -8.785156 19.109375 -8.734375 C 19.734375 -8.679688 20.082031 -8.601562 20.15625 -8.5 C 20.226562 -8.394531 20.179688 -8.039062 20.015625 -7.4375 C 19.554688 -5.90625 19.101562 -4.378906 18.65625 -2.859375 C 18.207031 -1.335938 17.71875 0.171875 17.1875 1.671875 C 17.082031 1.910156 16.976562 2.15625 16.875 2.40625 C 16.769531 2.664062 16.65625 2.914062 16.53125 3.15625 C 16.257812 3.738281 15.898438 4.128906 15.453125 4.328125 C 15.015625 4.535156 14.503906 4.628906 13.921875 4.609375 C 12.785156 4.554688 12.007812 3.988281 11.59375 2.90625 C 11.425781 2.46875 11.296875 2.023438 11.203125 1.578125 C 11.109375 1.128906 11.023438 0.675781 10.953125 0.21875 C 10.773438 -1.007812 10.679688 -2.234375 10.671875 -3.453125 C 10.660156 -4.679688 10.703125 -5.910156 10.796875 -7.140625 C 10.828125 -7.617188 10.859375 -8.09375 10.890625 -8.5625 C 10.929688 -9.039062 10.9375 -9.519531 10.90625 -10 C 10.957031 -10.03125 10.984375 -10.054688 10.984375 -10.078125 C 10.984375 -10.078125 10.984375 -10.085938 10.984375 -10.109375 Z M 10.984375 -10.109375 "/></g></g></g><g fill="#ffffff" fill-opacity="1"><g transform="translate(234.093674, 189.019881)"><g><path d="M 5.03125 -3.40625 C 4.863281 -3.570312 4.6875 -3.757812 4.5 -3.96875 C 4.320312 -4.175781 4.09375 -4.363281 3.8125 -4.53125 C 3.757812 -3.976562 3.710938 -3.441406 3.671875 -2.921875 C 3.640625 -2.398438 3.597656 -1.894531 3.546875 -1.40625 C 3.546875 -1.070312 3.539062 -0.738281 3.53125 -0.40625 C 3.519531 -0.0820312 3.515625 0.234375 3.515625 0.546875 C 3.535156 0.953125 3.332031 1.15625 2.90625 1.15625 C 2.757812 1.15625 2.617188 1.15625 2.484375 1.15625 C 2.347656 1.15625 2.207031 1.15625 2.0625 1.15625 C 1.625 1.15625 1.320312 1.148438 1.15625 1.140625 C 0.988281 1.128906 0.875 1.03125 0.8125 0.84375 C 0.75 0.664062 0.671875 0.320312 0.578125 -0.1875 C 0.0234375 -2.957031 -0.226562 -5.738281 -0.1875 -8.53125 C -0.15625 -11.320312 -0.0664062 -14.117188 0.078125 -16.921875 C 0.148438 -18.273438 0.238281 -19.625 0.34375 -20.96875 C 0.445312 -22.3125 0.585938 -23.644531 0.765625 -24.96875 C 0.785156 -25.257812 0.816406 -25.535156 0.859375 -25.796875 C 0.910156 -26.066406 0.960938 -26.335938 1.015625 -26.609375 C 1.085938 -26.992188 1.316406 -27.195312 1.703125 -27.21875 C 2.066406 -27.21875 2.421875 -27.242188 2.765625 -27.296875 C 3.117188 -27.347656 3.476562 -27.375 3.84375 -27.375 C 4.28125 -27.375 4.5 -27.144531 4.5 -26.6875 C 4.5 -25.9375 4.5 -25.171875 4.5 -24.390625 C 4.5 -23.617188 4.472656 -22.847656 4.421875 -22.078125 C 4.367188 -21.054688 4.316406 -20.03125 4.265625 -19 C 4.222656 -17.976562 4.175781 -16.9375 4.125 -15.875 C 4.320312 -15.945312 4.460938 -16.050781 4.546875 -16.1875 C 4.628906 -16.320312 4.722656 -16.445312 4.828125 -16.5625 C 5.253906 -17.144531 5.722656 -17.703125 6.234375 -18.234375 C 6.742188 -18.765625 7.320312 -19.222656 7.96875 -19.609375 C 8.53125 -19.953125 9.101562 -20.203125 9.6875 -20.359375 C 10.28125 -20.515625 10.90625 -20.53125 11.5625 -20.40625 C 12.363281 -20.257812 13.003906 -19.914062 13.484375 -19.375 C 13.960938 -18.832031 14.226562 -18.160156 14.28125 -17.359375 C 14.300781 -16.753906 14.25 -16.164062 14.125 -15.59375 C 14.007812 -15.03125 13.796875 -14.472656 13.484375 -13.921875 C 12.785156 -12.710938 11.945312 -11.648438 10.96875 -10.734375 C 9.988281 -9.816406 8.832031 -9.078125 7.5 -8.515625 C 7.164062 -8.367188 6.8125 -8.257812 6.4375 -8.1875 C 6.0625 -8.113281 5.644531 -8.03125 5.1875 -7.9375 C 5.757812 -7.257812 6.269531 -6.5625 6.71875 -5.84375 C 7.164062 -5.132812 7.679688 -4.492188 8.265625 -3.921875 C 9.597656 -2.535156 10.972656 -2.5 12.390625 -3.8125 C 12.710938 -4.09375 13 -4.398438 13.25 -4.734375 C 13.5 -5.078125 13.734375 -5.445312 13.953125 -5.84375 C 14.460938 -6.707031 14.921875 -7.609375 15.328125 -8.546875 C 15.742188 -9.492188 16.15625 -10.4375 16.5625 -11.375 C 16.800781 -11.914062 17.039062 -12.238281 17.28125 -12.34375 C 17.53125 -12.445312 17.921875 -12.414062 18.453125 -12.25 C 18.765625 -12.15625 18.875 -11.953125 18.78125 -11.640625 C 18.34375 -10.304688 17.835938 -9 17.265625 -7.71875 C 16.703125 -6.4375 15.984375 -5.238281 15.109375 -4.125 C 14.242188 -3.0625 13.222656 -2.316406 12.046875 -1.890625 C 10.878906 -1.472656 9.675781 -1.390625 8.4375 -1.640625 C 7.207031 -1.898438 6.070312 -2.488281 5.03125 -3.40625 Z M 9.359375 -18.15625 C 8.222656 -17.144531 7.285156 -16 6.546875 -14.71875 C 5.804688 -13.4375 5.179688 -12.019531 4.671875 -10.46875 C 5.765625 -10.738281 6.71875 -11.109375 7.53125 -11.578125 C 8.351562 -12.046875 9.082031 -12.65625 9.71875 -13.40625 C 10.101562 -13.894531 10.46875 -14.390625 10.8125 -14.890625 C 11.164062 -15.398438 11.40625 -15.972656 11.53125 -16.609375 C 11.570312 -16.867188 11.601562 -17.128906 11.625 -17.390625 C 11.65625 -17.660156 11.644531 -17.941406 11.59375 -18.234375 C 11.40625 -18.984375 10.972656 -19.175781 10.296875 -18.8125 C 9.929688 -18.625 9.617188 -18.40625 9.359375 -18.15625 Z M 9.359375 -18.15625 "/></g></g></g><g fill="#ffffff" fill-opacity="1"><g transform="translate(250.766914, 189.019881)"><g><path d="M 10.65625 -10.625 C 10.945312 -10.5 11.085938 -10.34375 11.078125 -10.15625 C 11.066406 -9.976562 11.007812 -9.796875 10.90625 -9.609375 C 10.476562 -8.585938 10.039062 -7.554688 9.59375 -6.515625 C 9.144531 -5.484375 8.691406 -4.445312 8.234375 -3.40625 C 8.085938 -3.09375 7.941406 -2.785156 7.796875 -2.484375 C 7.648438 -2.179688 7.492188 -1.875 7.328125 -1.5625 C 6.910156 -0.851562 6.332031 -0.363281 5.59375 -0.09375 C 4.863281 0.164062 4.109375 0.207031 3.328125 0.03125 C 2.554688 -0.132812 1.929688 -0.546875 1.453125 -1.203125 C 1.140625 -1.609375 0.890625 -2.039062 0.703125 -2.5 C 0.523438 -2.957031 0.375 -3.429688 0.25 -3.921875 C 0.0625 -4.660156 -0.0625 -5.414062 -0.125 -6.1875 C -0.1875 -6.96875 -0.207031 -7.695312 -0.1875 -8.375 C -0.207031 -9.875 -0.113281 -11.3125 0.09375 -12.6875 C 0.300781 -14.0625 0.582031 -15.425781 0.9375 -16.78125 C 0.96875 -16.925781 1.007812 -17.070312 1.0625 -17.21875 C 1.125 -17.363281 1.179688 -17.507812 1.234375 -17.65625 C 1.347656 -17.988281 1.578125 -18.144531 1.921875 -18.125 C 1.992188 -18.125 2.050781 -18.125 2.09375 -18.125 C 2.144531 -18.125 2.195312 -18.125 2.25 -18.125 C 2.96875 -18.101562 3.394531 -18.023438 3.53125 -17.890625 C 3.664062 -17.753906 3.695312 -17.335938 3.625 -16.640625 C 3.53125 -15.191406 3.429688 -13.753906 3.328125 -12.328125 C 3.234375 -10.898438 3.210938 -9.472656 3.265625 -8.046875 C 3.285156 -7.242188 3.304688 -6.453125 3.328125 -5.671875 C 3.359375 -4.890625 3.445312 -4.109375 3.59375 -3.328125 C 3.632812 -3.015625 3.703125 -2.710938 3.796875 -2.421875 C 3.898438 -2.140625 4.023438 -1.863281 4.171875 -1.59375 C 4.484375 -1.039062 4.804688 -1.015625 5.140625 -1.515625 C 5.285156 -1.710938 5.410156 -1.921875 5.515625 -2.140625 C 5.628906 -2.359375 5.75 -2.578125 5.875 -2.796875 C 6.476562 -3.953125 7.078125 -5.113281 7.671875 -6.28125 C 8.265625 -7.457031 8.863281 -8.625 9.46875 -9.78125 C 9.488281 -9.851562 9.515625 -9.921875 9.546875 -9.984375 C 9.585938 -10.046875 9.617188 -10.113281 9.640625 -10.1875 C 9.804688 -10.5 9.941406 -10.671875 10.046875 -10.703125 C 10.160156 -10.742188 10.363281 -10.71875 10.65625 -10.625 Z M 3.046875 -20.046875 C 2.023438 -20.023438 1.503906 -20.425781 1.484375 -21.25 C 1.460938 -21.707031 1.59375 -22.097656 1.875 -22.421875 C 2.164062 -22.742188 2.519531 -22.90625 2.9375 -22.90625 C 3.445312 -22.90625 3.851562 -22.785156 4.15625 -22.546875 C 4.457031 -22.304688 4.609375 -21.96875 4.609375 -21.53125 C 4.609375 -20.5625 4.085938 -20.066406 3.046875 -20.046875 Z M 3.046875 -20.046875 "/></g></g></g><g fill="#ffffff" fill-opacity="1"><g transform="translate(260.879611, 189.019881)"><g><path d="M 28.59375 -10.84375 C 28.8125 -10.738281 28.910156 -10.617188 28.890625 -10.484375 C 28.867188 -10.359375 28.832031 -10.222656 28.78125 -10.078125 C 28.320312 -8.921875 27.84375 -7.765625 27.34375 -6.609375 C 26.851562 -5.460938 26.234375 -4.382812 25.484375 -3.375 C 25.335938 -3.175781 25.1875 -2.984375 25.03125 -2.796875 C 24.875 -2.617188 24.722656 -2.445312 24.578125 -2.28125 C 24.191406 -1.800781 23.695312 -1.507812 23.09375 -1.40625 C 22.488281 -1.3125 21.894531 -1.382812 21.3125 -1.625 C 20.726562 -1.875 20.28125 -2.300781 19.96875 -2.90625 C 19.675781 -3.4375 19.429688 -3.976562 19.234375 -4.53125 C 19.046875 -5.082031 18.878906 -5.648438 18.734375 -6.234375 C 18.597656 -6.890625 18.476562 -7.546875 18.375 -8.203125 C 18.28125 -8.867188 18.195312 -9.53125 18.125 -10.1875 C 18.050781 -10.695312 17.941406 -11.191406 17.796875 -11.671875 C 17.648438 -12.148438 17.394531 -12.222656 17.03125 -11.890625 C 16.675781 -11.523438 16.359375 -11.128906 16.078125 -10.703125 C 15.796875 -10.285156 15.546875 -9.835938 15.328125 -9.359375 C 14.867188 -8.222656 14.460938 -7.078125 14.109375 -5.921875 C 13.765625 -4.773438 13.472656 -3.597656 13.234375 -2.390625 C 13.140625 -1.878906 13.066406 -1.523438 13.015625 -1.328125 C 12.960938 -1.140625 12.832031 -1.039062 12.625 -1.03125 C 12.425781 -1.019531 12.035156 -1.039062 11.453125 -1.09375 C 11.015625 -1.113281 10.753906 -1.164062 10.671875 -1.25 C 10.585938 -1.332031 10.546875 -1.601562 10.546875 -2.0625 C 10.546875 -3.101562 10.546875 -4.15625 10.546875 -5.21875 C 10.546875 -6.28125 10.546875 -7.34375 10.546875 -8.40625 C 10.546875 -9.539062 10.503906 -10.679688 10.421875 -11.828125 C 10.335938 -12.984375 10.160156 -14.113281 9.890625 -15.21875 C 9.816406 -15.5625 9.734375 -15.894531 9.640625 -16.21875 C 9.546875 -16.550781 9.414062 -16.875 9.25 -17.1875 C 8.925781 -17.738281 8.5 -17.820312 7.96875 -17.4375 C 7.820312 -17.34375 7.6875 -17.222656 7.5625 -17.078125 C 7.445312 -16.929688 7.332031 -16.785156 7.21875 -16.640625 C 6.925781 -16.222656 6.671875 -15.789062 6.453125 -15.34375 C 6.234375 -14.90625 6.039062 -14.457031 5.875 -14 C 5.269531 -12.207031 4.71875 -10.410156 4.21875 -8.609375 C 3.726562 -6.804688 3.445312 -4.953125 3.375 -3.046875 C 3.375 -2.703125 3.347656 -2.359375 3.296875 -2.015625 C 3.242188 -1.679688 3.207031 -1.347656 3.1875 -1.015625 C 3.164062 -0.671875 3.113281 -0.457031 3.03125 -0.375 C 2.945312 -0.289062 2.734375 -0.25 2.390625 -0.25 C 1.910156 -0.226562 1.390625 -0.242188 0.828125 -0.296875 C 0.472656 -0.296875 0.242188 -0.335938 0.140625 -0.421875 C 0.046875 -0.503906 -0.0351562 -0.726562 -0.109375 -1.09375 C -0.234375 -1.71875 -0.320312 -2.34375 -0.375 -2.96875 C -0.4375 -3.601562 -0.476562 -4.234375 -0.5 -4.859375 C -0.625 -7.253906 -0.617188 -9.640625 -0.484375 -12.015625 C -0.359375 -14.398438 -0.113281 -16.773438 0.25 -19.140625 C 0.28125 -19.234375 0.300781 -19.320312 0.3125 -19.40625 C 0.320312 -19.488281 0.335938 -19.566406 0.359375 -19.640625 C 0.429688 -20.171875 0.722656 -20.425781 1.234375 -20.40625 C 1.472656 -20.40625 1.707031 -20.421875 1.9375 -20.453125 C 2.164062 -20.492188 2.398438 -20.515625 2.640625 -20.515625 C 3.097656 -20.535156 3.367188 -20.507812 3.453125 -20.4375 C 3.546875 -20.375 3.601562 -20.109375 3.625 -19.640625 C 3.675781 -19.066406 3.710938 -18.488281 3.734375 -17.90625 C 3.753906 -17.320312 3.753906 -16.742188 3.734375 -16.171875 C 3.734375 -16.097656 3.734375 -16.007812 3.734375 -15.90625 C 3.734375 -15.8125 3.734375 -15.691406 3.734375 -15.546875 C 3.929688 -15.671875 4.0625 -15.804688 4.125 -15.953125 C 4.195312 -16.097656 4.285156 -16.226562 4.390625 -16.34375 C 4.722656 -16.832031 5.085938 -17.28125 5.484375 -17.6875 C 5.890625 -18.101562 6.359375 -18.453125 6.890625 -18.734375 C 7.972656 -19.367188 9.015625 -19.507812 10.015625 -19.15625 C 11.023438 -18.800781 11.769531 -18.046875 12.25 -16.890625 C 12.488281 -16.265625 12.671875 -15.632812 12.796875 -15 C 12.921875 -14.375 13.003906 -13.738281 13.046875 -13.09375 C 13.097656 -12.601562 13.140625 -12.109375 13.171875 -11.609375 C 13.210938 -11.117188 13.242188 -10.617188 13.265625 -10.109375 C 13.460938 -10.179688 13.597656 -10.289062 13.671875 -10.4375 C 13.742188 -10.582031 13.816406 -10.71875 13.890625 -10.84375 C 14.148438 -11.25 14.425781 -11.640625 14.71875 -12.015625 C 15.007812 -12.390625 15.320312 -12.75 15.65625 -13.09375 C 15.800781 -13.207031 15.945312 -13.320312 16.09375 -13.4375 C 16.238281 -13.5625 16.382812 -13.6875 16.53125 -13.8125 C 17.46875 -14.414062 18.328125 -14.566406 19.109375 -14.265625 C 19.898438 -13.960938 20.441406 -13.28125 20.734375 -12.21875 C 20.898438 -11.65625 21.019531 -11.097656 21.09375 -10.546875 C 21.164062 -9.992188 21.21875 -9.4375 21.25 -8.875 C 21.25 -8.101562 21.296875 -7.335938 21.390625 -6.578125 C 21.484375 -5.816406 21.59375 -5.050781 21.71875 -4.28125 C 21.757812 -4.007812 21.828125 -3.75 21.921875 -3.5 C 22.023438 -3.25 22.171875 -3.023438 22.359375 -2.828125 C 22.628906 -2.515625 22.921875 -2.476562 23.234375 -2.71875 C 23.429688 -2.863281 23.59375 -3.019531 23.71875 -3.1875 C 23.851562 -3.351562 23.984375 -3.535156 24.109375 -3.734375 C 24.710938 -4.628906 25.253906 -5.554688 25.734375 -6.515625 C 26.222656 -7.484375 26.695312 -8.453125 27.15625 -9.421875 C 27.25 -9.585938 27.335938 -9.769531 27.421875 -9.96875 C 27.503906 -10.164062 27.59375 -10.359375 27.6875 -10.546875 C 27.789062 -10.765625 27.921875 -10.882812 28.078125 -10.90625 C 28.234375 -10.9375 28.40625 -10.914062 28.59375 -10.84375 Z M 28.59375 -10.84375 "/></g></g></g><g fill="#ffffff" fill-opacity="1"><g transform="translate(161.601366, 223.519879)"><g><path d="M 8.734375 -25.015625 C 8.753906 -24.523438 8.769531 -24.03125 8.78125 -23.53125 C 8.800781 -23.039062 8.820312 -22.519531 8.84375 -21.96875 C 9.039062 -22.113281 9.179688 -22.265625 9.265625 -22.421875 C 9.347656 -22.578125 9.425781 -22.71875 9.5 -22.84375 C 9.90625 -23.46875 10.347656 -24.054688 10.828125 -24.609375 C 11.316406 -25.171875 11.863281 -25.664062 12.46875 -26.09375 C 13.582031 -26.84375 14.726562 -27.179688 15.90625 -27.109375 C 17.09375 -27.035156 18.144531 -26.566406 19.0625 -25.703125 C 19.445312 -25.316406 19.753906 -24.894531 19.984375 -24.4375 C 20.222656 -23.976562 20.398438 -23.484375 20.515625 -22.953125 C 20.804688 -21.398438 20.78125 -19.863281 20.4375 -18.34375 C 20.101562 -16.820312 19.476562 -15.398438 18.5625 -14.078125 C 17.644531 -12.765625 16.484375 -11.660156 15.078125 -10.765625 C 13.429688 -9.679688 11.644531 -8.957031 9.71875 -8.59375 C 9.257812 -8.519531 8.984375 -8.429688 8.890625 -8.328125 C 8.804688 -8.234375 8.765625 -7.957031 8.765625 -7.5 C 8.765625 -6.144531 8.78125 -4.789062 8.8125 -3.4375 C 8.851562 -2.082031 8.910156 -0.734375 8.984375 0.609375 C 8.984375 0.734375 8.988281 0.867188 9 1.015625 C 9.019531 1.160156 9.03125 1.289062 9.03125 1.40625 C 9.03125 1.945312 8.96875 2.273438 8.84375 2.390625 C 8.71875 2.515625 8.390625 2.597656 7.859375 2.640625 C 7.648438 2.671875 7.441406 2.691406 7.234375 2.703125 C 7.023438 2.710938 6.828125 2.726562 6.640625 2.75 C 6.222656 2.800781 5.941406 2.769531 5.796875 2.65625 C 5.648438 2.550781 5.539062 2.296875 5.46875 1.890625 C 5.425781 1.566406 5.390625 1.253906 5.359375 0.953125 C 5.335938 0.648438 5.316406 0.34375 5.296875 0.03125 C 5.191406 -1.195312 5.101562 -2.421875 5.03125 -3.640625 C 4.96875 -4.859375 4.882812 -6.085938 4.78125 -7.328125 C 4.78125 -7.472656 4.773438 -7.609375 4.765625 -7.734375 C 4.753906 -7.867188 4.738281 -8.007812 4.71875 -8.15625 C 4.6875 -8.488281 4.503906 -8.691406 4.171875 -8.765625 C 3.878906 -8.835938 3.582031 -8.914062 3.28125 -9 C 2.976562 -9.09375 2.679688 -9.1875 2.390625 -9.28125 C 1.910156 -9.40625 1.726562 -9.707031 1.84375 -10.1875 C 1.945312 -10.59375 2.191406 -10.75 2.578125 -10.65625 C 2.816406 -10.5625 3.070312 -10.484375 3.34375 -10.421875 C 3.625 -10.359375 3.898438 -10.304688 4.171875 -10.265625 C 4.460938 -10.191406 4.609375 -10.3125 4.609375 -10.625 C 4.609375 -10.882812 4.609375 -11.160156 4.609375 -11.453125 C 4.578125 -13.148438 4.5625 -14.851562 4.5625 -16.5625 C 4.5625 -18.28125 4.578125 -19.984375 4.609375 -21.671875 C 4.628906 -22.640625 4.675781 -23.597656 4.75 -24.546875 C 4.820312 -25.503906 4.929688 -26.457031 5.078125 -27.40625 C 5.148438 -27.9375 5.234375 -28.253906 5.328125 -28.359375 C 5.421875 -28.472656 5.722656 -28.578125 6.234375 -28.671875 C 6.691406 -28.765625 7.128906 -28.847656 7.546875 -28.921875 C 7.972656 -28.992188 8.25 -28.988281 8.375 -28.90625 C 8.5 -28.820312 8.570312 -28.550781 8.59375 -28.09375 C 8.632812 -27.582031 8.660156 -27.066406 8.671875 -26.546875 C 8.691406 -26.035156 8.710938 -25.523438 8.734375 -25.015625 Z M 11.5625 -22.25 C 10.695312 -20.832031 9.988281 -19.347656 9.4375 -17.796875 C 8.894531 -16.253906 8.6875 -14.625 8.8125 -12.90625 C 8.8125 -12.519531 8.8125 -12.140625 8.8125 -11.765625 C 8.8125 -11.390625 8.8125 -11.019531 8.8125 -10.65625 C 8.8125 -10.195312 8.847656 -9.9375 8.921875 -9.875 C 8.992188 -9.8125 9.234375 -9.816406 9.640625 -9.890625 C 11.816406 -10.304688 13.582031 -11.394531 14.9375 -13.15625 C 16.019531 -14.582031 16.691406 -16.101562 16.953125 -17.71875 C 17.222656 -19.34375 17.203125 -21.023438 16.890625 -22.765625 C 16.742188 -23.585938 16.367188 -24.300781 15.765625 -24.90625 C 15.429688 -25.238281 15.160156 -25.410156 14.953125 -25.421875 C 14.742188 -25.441406 14.457031 -25.316406 14.09375 -25.046875 C 13.5625 -24.679688 13.09375 -24.265625 12.6875 -23.796875 C 12.28125 -23.328125 11.90625 -22.8125 11.5625 -22.25 Z M 11.5625 -22.25 "/></g></g></g><g fill="#ffffff" fill-opacity="1"><g transform="translate(182.297923, 223.519879)"><g><path d="M 7 -17.515625 C 7 -17.609375 7.007812 -17.707031 7.03125 -17.8125 C 7.050781 -17.925781 7.039062 -18.054688 7 -18.203125 C 6.414062 -18.273438 5.828125 -18.335938 5.234375 -18.390625 C 4.640625 -18.453125 4.054688 -18.554688 3.484375 -18.703125 C 3.429688 -18.148438 3.378906 -17.613281 3.328125 -17.09375 C 3.285156 -16.570312 3.25 -16.054688 3.21875 -15.546875 C 3.050781 -13.160156 2.785156 -10.773438 2.421875 -8.390625 C 2.066406 -6.015625 1.632812 -3.640625 1.125 -1.265625 C 1.125 -1.222656 1.117188 -1.175781 1.109375 -1.125 C 1.097656 -1.070312 1.078125 -1.023438 1.046875 -0.984375 C 0.804688 0.00390625 0.21875 0.296875 -0.71875 -0.109375 C -0.863281 -0.160156 -0.945312 -0.238281 -0.96875 -0.34375 C -1 -0.445312 -1.015625 -0.5625 -1.015625 -0.6875 C -0.992188 -1.144531 -0.953125 -1.601562 -0.890625 -2.0625 C -0.828125 -2.519531 -0.757812 -2.976562 -0.6875 -3.4375 C -0.375 -5.175781 -0.128906 -6.925781 0.046875 -8.6875 C 0.234375 -10.457031 0.375 -12.238281 0.46875 -14.03125 C 0.519531 -14.875 0.582031 -15.710938 0.65625 -16.546875 C 0.726562 -17.378906 0.800781 -18.207031 0.875 -19.03125 C 0.875 -19.175781 0.890625 -19.3125 0.921875 -19.4375 C 0.960938 -19.570312 0.992188 -19.703125 1.015625 -19.828125 C 1.066406 -20.359375 1.367188 -20.578125 1.921875 -20.484375 C 2.359375 -20.429688 2.78125 -20.375 3.1875 -20.3125 C 3.601562 -20.257812 4.003906 -20.125 4.390625 -19.90625 C 4.753906 -19.6875 5.132812 -19.539062 5.53125 -19.46875 C 5.925781 -19.394531 6.332031 -19.347656 6.75 -19.328125 C 7.226562 -19.296875 7.707031 -19.28125 8.1875 -19.28125 C 8.675781 -19.28125 9.160156 -19.28125 9.640625 -19.28125 C 10.316406 -19.28125 10.789062 -19.128906 11.0625 -18.828125 C 11.34375 -18.523438 11.4375 -18.035156 11.34375 -17.359375 C 11.226562 -16.441406 11.085938 -15.515625 10.921875 -14.578125 C 10.765625 -13.648438 10.628906 -12.726562 10.515625 -11.8125 C 10.273438 -10.21875 10.101562 -8.628906 10 -7.046875 C 9.90625 -5.460938 9.894531 -3.875 9.96875 -2.28125 C 9.988281 -1.632812 10.046875 -0.976562 10.140625 -0.3125 C 10.242188 0.351562 10.390625 1 10.578125 1.625 C 10.703125 2.019531 10.84375 2.234375 11 2.265625 C 11.15625 2.296875 11.378906 2.179688 11.671875 1.921875 C 12.109375 1.554688 12.488281 1.144531 12.8125 0.6875 C 13.132812 0.226562 13.441406 -0.238281 13.734375 -0.71875 C 14.316406 -1.757812 14.816406 -2.820312 15.234375 -3.90625 C 15.660156 -5 16.066406 -6.113281 16.453125 -7.25 C 16.691406 -8 16.953125 -8.753906 17.234375 -9.515625 C 17.515625 -10.273438 17.785156 -11.03125 18.046875 -11.78125 C 18.097656 -11.90625 18.15625 -12.03125 18.21875 -12.15625 C 18.28125 -12.289062 18.382812 -12.367188 18.53125 -12.390625 C 18.738281 -12.390625 18.957031 -12.378906 19.1875 -12.359375 C 19.414062 -12.335938 19.628906 -12.265625 19.828125 -12.140625 C 19.898438 -12.097656 19.9375 -12.03125 19.9375 -11.9375 C 19.9375 -11.851562 19.925781 -11.765625 19.90625 -11.671875 C 19.851562 -11.472656 19.800781 -11.273438 19.75 -11.078125 C 19.707031 -10.890625 19.660156 -10.703125 19.609375 -10.515625 C 19.097656 -8.847656 18.554688 -7.203125 17.984375 -5.578125 C 17.421875 -3.960938 16.726562 -2.378906 15.90625 -0.828125 C 15.570312 -0.179688 15.191406 0.4375 14.765625 1.03125 C 14.347656 1.625 13.875 2.1875 13.34375 2.71875 C 12.925781 3.125 12.351562 3.394531 11.625 3.53125 C 10.90625 3.664062 10.203125 3.660156 9.515625 3.515625 C 8.828125 3.367188 8.3125 3.101562 7.96875 2.71875 C 7.65625 2.351562 7.378906 1.953125 7.140625 1.515625 C 6.609375 0.523438 6.234375 -0.507812 6.015625 -1.59375 C 5.796875 -2.675781 5.675781 -3.773438 5.65625 -4.890625 C 5.632812 -9.097656 6.082031 -13.304688 7 -17.515625 Z M 7 -17.515625 "/></g></g></g><g fill="#ffffff" fill-opacity="1"><g transform="translate(200.058544, 223.519879)"><g><path d="M 8.921875 -10.328125 C 8.921875 -10.328125 8.859375 -10.304688 8.734375 -10.265625 C 8.734375 -10.191406 8.734375 -10.117188 8.734375 -10.046875 C 8.734375 -9.972656 8.742188 -9.898438 8.765625 -9.828125 C 9.085938 -8.640625 9.179688 -7.472656 9.046875 -6.328125 C 8.910156 -5.179688 8.613281 -4.050781 8.15625 -2.9375 C 7.644531 -1.707031 6.910156 -0.847656 5.953125 -0.359375 C 5.003906 0.117188 3.890625 0.210938 2.609375 -0.078125 C 1.929688 -0.242188 1.363281 -0.523438 0.90625 -0.921875 C 0.445312 -1.316406 0.0703125 -1.804688 -0.21875 -2.390625 C -0.550781 -3.046875 -0.769531 -3.71875 -0.875 -4.40625 C -0.988281 -5.09375 -1.023438 -5.785156 -0.984375 -6.484375 C -0.859375 -7.765625 -0.609375 -9.003906 -0.234375 -10.203125 C 0.140625 -11.398438 0.675781 -12.53125 1.375 -13.59375 C 1.59375 -13.925781 1.828125 -14.242188 2.078125 -14.546875 C 2.335938 -14.847656 2.625 -15.125 2.9375 -15.375 C 3.488281 -15.78125 3.988281 -15.984375 4.4375 -15.984375 C 4.882812 -15.984375 5.375 -15.789062 5.90625 -15.40625 C 6.125 -15.238281 6.332031 -15.0625 6.53125 -14.875 C 6.738281 -14.695312 6.941406 -14.507812 7.140625 -14.3125 C 7.285156 -14.164062 7.429688 -14.019531 7.578125 -13.875 C 7.722656 -13.738281 7.867188 -13.597656 8.015625 -13.453125 C 8.878906 -12.554688 9.832031 -11.921875 10.875 -11.546875 C 11.914062 -11.171875 13.0625 -11.148438 14.3125 -11.484375 C 14.507812 -11.535156 14.707031 -11.578125 14.90625 -11.609375 C 15.113281 -11.648438 15.316406 -11.679688 15.515625 -11.703125 C 15.679688 -11.753906 15.832031 -11.753906 15.96875 -11.703125 C 16.101562 -11.660156 16.191406 -11.539062 16.234375 -11.34375 C 16.335938 -10.957031 16.179688 -10.703125 15.765625 -10.578125 C 14.753906 -10.335938 13.734375 -10.148438 12.703125 -10.015625 C 11.679688 -9.890625 10.648438 -9.945312 9.609375 -10.1875 C 9.484375 -10.238281 9.363281 -10.269531 9.25 -10.28125 C 9.144531 -10.289062 9.035156 -10.304688 8.921875 -10.328125 Z M 5.21875 -12.6875 C 5.144531 -12.78125 5.070312 -12.875 5 -12.96875 C 4.925781 -13.070312 4.816406 -13.144531 4.671875 -13.1875 C 4.484375 -12.976562 4.328125 -12.742188 4.203125 -12.484375 C 4.085938 -12.234375 3.976562 -11.972656 3.875 -11.703125 C 3.65625 -11.003906 3.472656 -10.289062 3.328125 -9.5625 C 3.191406 -8.84375 3.070312 -8.117188 2.96875 -7.390625 C 2.851562 -6.617188 2.800781 -5.847656 2.8125 -5.078125 C 2.820312 -4.304688 2.945312 -3.53125 3.1875 -2.75 C 3.238281 -2.5625 3.300781 -2.367188 3.375 -2.171875 C 3.445312 -1.984375 3.554688 -1.800781 3.703125 -1.625 C 4.085938 -1.125 4.519531 -1.085938 5 -1.515625 C 5.34375 -1.835938 5.632812 -2.25 5.875 -2.75 C 6.695312 -4.46875 7.03125 -6.15625 6.875 -7.8125 C 6.71875 -9.46875 6.164062 -11.09375 5.21875 -12.6875 Z M 5.21875 -12.6875 "/></g></g></g><g fill="#ffffff" fill-opacity="1"><g transform="translate(214.955726, 223.519879)"><g><path d="M 8.625 -8.703125 C 8.625 -8.742188 8.617188 -8.800781 8.609375 -8.875 C 8.597656 -8.945312 8.546875 -9.007812 8.453125 -9.0625 C 8.347656 -8.9375 8.269531 -8.796875 8.21875 -8.640625 C 8.175781 -8.484375 8.117188 -8.332031 8.046875 -8.1875 C 7.804688 -7.539062 7.5625 -6.898438 7.3125 -6.265625 C 7.070312 -5.640625 6.796875 -5.015625 6.484375 -4.390625 C 6.171875 -3.753906 5.769531 -3.253906 5.28125 -2.890625 C 4.800781 -2.535156 4.1875 -2.394531 3.4375 -2.46875 C 2.625 -2.539062 1.894531 -2.742188 1.25 -3.078125 C 0.613281 -3.421875 0.132812 -4.015625 -0.1875 -4.859375 C -0.46875 -5.628906 -0.601562 -6.410156 -0.59375 -7.203125 C -0.582031 -8.003906 -0.503906 -8.804688 -0.359375 -9.609375 C -0.117188 -10.910156 0.375 -12.128906 1.125 -13.265625 C 1.894531 -14.492188 2.847656 -15.410156 3.984375 -16.015625 C 5.117188 -16.617188 6.390625 -16.972656 7.796875 -17.078125 C 8.273438 -17.117188 8.566406 -17.179688 8.671875 -17.265625 C 8.785156 -17.359375 8.878906 -17.632812 8.953125 -18.09375 C 9.097656 -19.226562 9.253906 -20.363281 9.421875 -21.5 C 9.585938 -22.632812 9.816406 -23.757812 10.109375 -24.875 C 10.179688 -25.226562 10.273438 -25.585938 10.390625 -25.953125 C 10.515625 -26.316406 10.640625 -26.664062 10.765625 -27 C 10.890625 -27.4375 11.15625 -27.65625 11.5625 -27.65625 C 11.945312 -27.65625 12.328125 -27.660156 12.703125 -27.671875 C 13.078125 -27.679688 13.445312 -27.6875 13.8125 -27.6875 C 14.25 -27.71875 14.46875 -27.515625 14.46875 -27.078125 C 14.4375 -26.710938 14.421875 -26.351562 14.421875 -26 C 14.421875 -25.65625 14.410156 -25.300781 14.390625 -24.9375 C 14.171875 -21.4375 13.976562 -17.925781 13.8125 -14.40625 C 13.644531 -10.894531 13.609375 -7.375 13.703125 -3.84375 C 13.703125 -3.09375 13.703125 -2.351562 13.703125 -1.625 C 13.703125 -0.90625 13.703125 -0.171875 13.703125 0.578125 C 13.722656 1.472656 13.84375 2.378906 14.0625 3.296875 C 14.082031 3.390625 14.109375 3.472656 14.140625 3.546875 C 14.179688 3.617188 14.265625 3.65625 14.390625 3.65625 C 14.460938 3.65625 14.515625 3.625 14.546875 3.5625 C 14.585938 3.507812 14.632812 3.457031 14.6875 3.40625 C 14.832031 3.164062 14.945312 2.914062 15.03125 2.65625 C 15.113281 2.40625 15.203125 2.148438 15.296875 1.890625 C 15.753906 0.222656 16.21875 -1.445312 16.6875 -3.125 C 17.164062 -4.8125 17.632812 -6.5 18.09375 -8.1875 C 18.113281 -8.257812 18.132812 -8.335938 18.15625 -8.421875 C 18.1875 -8.515625 18.210938 -8.59375 18.234375 -8.65625 C 18.328125 -8.925781 18.453125 -9.09375 18.609375 -9.15625 C 18.765625 -9.21875 19.015625 -9.210938 19.359375 -9.140625 C 19.617188 -9.085938 19.757812 -8.976562 19.78125 -8.8125 C 19.8125 -8.644531 19.800781 -8.472656 19.75 -8.296875 C 19.289062 -6.554688 18.84375 -4.828125 18.40625 -3.109375 C 17.976562 -1.398438 17.535156 0.3125 17.078125 2.03125 C 16.953125 2.46875 16.804688 2.890625 16.640625 3.296875 C 16.472656 3.710938 16.28125 4.113281 16.0625 4.5 C 15.769531 4.976562 15.359375 5.3125 14.828125 5.5 C 14.296875 5.695312 13.753906 5.738281 13.203125 5.625 C 12.660156 5.519531 12.210938 5.253906 11.859375 4.828125 C 11.609375 4.554688 11.398438 4.253906 11.234375 3.921875 C 11.066406 3.597656 10.921875 3.269531 10.796875 2.9375 C 10.367188 1.851562 10.015625 0.75 9.734375 -0.375 C 9.453125 -1.5 9.226562 -2.644531 9.0625 -3.8125 C 8.9375 -4.601562 8.832031 -5.410156 8.75 -6.234375 C 8.664062 -7.054688 8.625 -7.878906 8.625 -8.703125 Z M 3.046875 -4.96875 C 3.046875 -4.800781 3.066406 -4.628906 3.109375 -4.453125 C 3.160156 -4.285156 3.285156 -4.144531 3.484375 -4.03125 C 3.742188 -4.289062 3.945312 -4.578125 4.09375 -4.890625 C 4.238281 -5.203125 4.375 -5.53125 4.5 -5.875 C 5.070312 -7.394531 5.664062 -8.914062 6.28125 -10.4375 C 6.90625 -11.957031 7.53125 -13.46875 8.15625 -14.96875 C 8.175781 -15.09375 8.210938 -15.207031 8.265625 -15.3125 C 8.316406 -15.425781 8.304688 -15.539062 8.234375 -15.65625 C 8.203125 -15.65625 8.164062 -15.660156 8.125 -15.671875 C 8.09375 -15.691406 8.054688 -15.703125 8.015625 -15.703125 C 7.941406 -15.671875 7.84375 -15.644531 7.71875 -15.625 C 7 -15.425781 6.367188 -15.101562 5.828125 -14.65625 C 5.296875 -14.21875 4.835938 -13.671875 4.453125 -13.015625 C 3.703125 -11.785156 3.222656 -10.484375 3.015625 -9.109375 C 2.816406 -7.742188 2.828125 -6.363281 3.046875 -4.96875 Z M 3.046875 -4.96875 "/></g></g></g><g fill="#ffffff" fill-opacity="1"><g transform="translate(234.202444, 223.519879)"><g><path d="M 10.984375 -10.109375 C 10.984375 -10.066406 10.972656 -10.03125 10.953125 -10 C 10.773438 -9.882812 10.660156 -9.75 10.609375 -9.59375 C 10.566406 -9.4375 10.507812 -9.285156 10.4375 -9.140625 C 10.144531 -8.460938 9.851562 -7.785156 9.5625 -7.109375 C 9.28125 -6.429688 8.992188 -5.753906 8.703125 -5.078125 C 8.335938 -4.273438 7.890625 -3.550781 7.359375 -2.90625 C 6.804688 -2.195312 6.050781 -1.734375 5.09375 -1.515625 C 4.132812 -1.304688 3.257812 -1.394531 2.46875 -1.78125 C 2.125 -1.945312 1.847656 -2.160156 1.640625 -2.421875 C 1.441406 -2.691406 1.269531 -2.984375 1.125 -3.296875 C 0.832031 -3.921875 0.625 -4.570312 0.5 -5.25 C 0.382812 -5.925781 0.300781 -6.601562 0.25 -7.28125 C 0.175781 -9.070312 0.171875 -10.859375 0.234375 -12.640625 C 0.296875 -14.429688 0.4375 -16.222656 0.65625 -18.015625 C 0.675781 -18.160156 0.703125 -18.296875 0.734375 -18.421875 C 0.773438 -18.554688 0.796875 -18.6875 0.796875 -18.8125 C 0.847656 -19.082031 1.019531 -19.226562 1.3125 -19.25 C 1.695312 -19.300781 2.09375 -19.34375 2.5 -19.375 C 2.914062 -19.414062 3.328125 -19.445312 3.734375 -19.46875 C 4.046875 -19.46875 4.242188 -19.429688 4.328125 -19.359375 C 4.410156 -19.285156 4.441406 -19.078125 4.421875 -18.734375 C 4.367188 -17.867188 4.320312 -17 4.28125 -16.125 C 4.25 -15.257812 4.195312 -14.390625 4.125 -13.515625 C 4.007812 -12.210938 3.914062 -10.910156 3.84375 -9.609375 C 3.769531 -8.304688 3.816406 -6.988281 3.984375 -5.65625 C 4.035156 -5.289062 4.085938 -4.929688 4.140625 -4.578125 C 4.203125 -4.234375 4.320312 -3.90625 4.5 -3.59375 C 4.71875 -3.082031 5.03125 -3.019531 5.4375 -3.40625 C 5.5625 -3.550781 5.671875 -3.703125 5.765625 -3.859375 C 5.859375 -4.015625 5.953125 -4.175781 6.046875 -4.34375 C 6.703125 -5.457031 7.273438 -6.597656 7.765625 -7.765625 C 8.265625 -8.941406 8.757812 -10.132812 9.25 -11.34375 C 9.632812 -12.3125 10.023438 -13.269531 10.421875 -14.21875 C 10.816406 -15.175781 11.207031 -16.148438 11.59375 -17.140625 C 11.695312 -17.410156 11.832031 -17.609375 12 -17.734375 C 12.164062 -17.867188 12.40625 -17.925781 12.71875 -17.90625 C 12.96875 -17.882812 13.210938 -17.890625 13.453125 -17.921875 C 13.691406 -17.960938 13.929688 -17.992188 14.171875 -18.015625 C 14.609375 -18.035156 14.851562 -17.832031 14.90625 -17.40625 C 14.96875 -16.769531 14.988281 -16.148438 14.96875 -15.546875 C 14.875 -13.328125 14.726562 -11.109375 14.53125 -8.890625 C 14.34375 -6.679688 14.234375 -4.46875 14.203125 -2.25 C 14.203125 -1.71875 14.207031 -1.171875 14.21875 -0.609375 C 14.238281 -0.0546875 14.25 0.484375 14.25 1.015625 C 14.25 1.253906 14.265625 1.492188 14.296875 1.734375 C 14.335938 1.984375 14.40625 2.226562 14.5 2.46875 C 14.71875 2.269531 14.863281 2.054688 14.9375 1.828125 C 15.007812 1.597656 15.082031 1.375 15.15625 1.15625 C 15.613281 -0.21875 16.066406 -1.582031 16.515625 -2.9375 C 16.960938 -4.289062 17.414062 -5.65625 17.875 -7.03125 C 17.945312 -7.226562 18.019531 -7.429688 18.09375 -7.640625 C 18.164062 -7.859375 18.238281 -8.066406 18.3125 -8.265625 C 18.425781 -8.628906 18.691406 -8.785156 19.109375 -8.734375 C 19.734375 -8.679688 20.082031 -8.601562 20.15625 -8.5 C 20.226562 -8.394531 20.179688 -8.039062 20.015625 -7.4375 C 19.554688 -5.90625 19.101562 -4.378906 18.65625 -2.859375 C 18.207031 -1.335938 17.71875 0.171875 17.1875 1.671875 C 17.082031 1.910156 16.976562 2.15625 16.875 2.40625 C 16.769531 2.664062 16.65625 2.914062 16.53125 3.15625 C 16.257812 3.738281 15.898438 4.128906 15.453125 4.328125 C 15.015625 4.535156 14.503906 4.628906 13.921875 4.609375 C 12.785156 4.554688 12.007812 3.988281 11.59375 2.90625 C 11.425781 2.46875 11.296875 2.023438 11.203125 1.578125 C 11.109375 1.128906 11.023438 0.675781 10.953125 0.21875 C 10.773438 -1.007812 10.679688 -2.234375 10.671875 -3.453125 C 10.660156 -4.679688 10.703125 -5.910156 10.796875 -7.140625 C 10.828125 -7.617188 10.859375 -8.09375 10.890625 -8.5625 C 10.929688 -9.039062 10.9375 -9.519531 10.90625 -10 C 10.957031 -10.03125 10.984375 -10.054688 10.984375 -10.078125 C 10.984375 -10.078125 10.984375 -10.085938 10.984375 -10.109375 Z M 10.984375 -10.109375 "/></g></g></g><g fill="#ffffff" fill-opacity="1"><g transform="translate(253.05045, 223.519879)"><g><path d="M 5.796875 -17.9375 C 5.390625 -17.257812 5.0625 -16.550781 4.8125 -15.8125 C 4.570312 -15.082031 4.40625 -14.238281 4.3125 -13.28125 C 4.21875 -12.332031 4.171875 -11.179688 4.171875 -9.828125 C 4.191406 -8.929688 4.289062 -7.847656 4.46875 -6.578125 C 4.65625 -5.304688 4.976562 -4.019531 5.4375 -2.71875 C 5.5625 -2.3125 5.710938 -1.910156 5.890625 -1.515625 C 6.066406 -1.128906 6.265625 -0.757812 6.484375 -0.40625 C 6.921875 0.269531 7.40625 0.320312 7.9375 -0.25 C 8.28125 -0.632812 8.601562 -1.050781 8.90625 -1.5 C 9.207031 -1.945312 9.476562 -2.398438 9.71875 -2.859375 C 10.394531 -4.191406 11.0625 -5.519531 11.71875 -6.84375 C 12.382812 -8.175781 13.019531 -9.519531 13.625 -10.875 C 13.675781 -10.945312 13.71875 -11.019531 13.75 -11.09375 C 13.789062 -11.164062 13.835938 -11.25 13.890625 -11.34375 C 14.003906 -11.632812 14.21875 -11.707031 14.53125 -11.5625 C 14.601562 -11.507812 14.679688 -11.460938 14.765625 -11.421875 C 14.859375 -11.390625 14.9375 -11.363281 15 -11.34375 C 15.414062 -11.175781 15.523438 -10.882812 15.328125 -10.46875 C 15.066406 -9.894531 14.804688 -9.316406 14.546875 -8.734375 C 14.296875 -8.148438 14.039062 -7.570312 13.78125 -7 C 13.414062 -6.226562 13.050781 -5.453125 12.6875 -4.671875 C 12.320312 -3.898438 11.957031 -3.128906 11.59375 -2.359375 C 11.476562 -2.085938 11.351562 -1.828125 11.21875 -1.578125 C 11.082031 -1.328125 10.941406 -1.078125 10.796875 -0.828125 C 10.242188 0.0859375 9.523438 0.75 8.640625 1.15625 C 7.765625 1.570312 6.84375 1.707031 5.875 1.5625 C 4.90625 1.414062 4.019531 0.992188 3.21875 0.296875 C 2.863281 -0.046875 2.539062 -0.421875 2.25 -0.828125 C 1.957031 -1.242188 1.703125 -1.671875 1.484375 -2.109375 C 0.972656 -3.066406 0.59375 -4.066406 0.34375 -5.109375 C 0.09375 -6.148438 -0.0664062 -7.210938 -0.140625 -8.296875 C -0.191406 -9.242188 -0.195312 -10.179688 -0.15625 -11.109375 C -0.125 -12.035156 0 -12.972656 0.21875 -13.921875 C 0.457031 -14.859375 0.800781 -15.742188 1.25 -16.578125 C 1.695312 -17.410156 2.269531 -18.164062 2.96875 -18.84375 C 3.425781 -19.300781 3.921875 -19.6875 4.453125 -20 C 4.984375 -20.320312 5.578125 -20.539062 6.234375 -20.65625 C 7.660156 -20.925781 8.84375 -20.492188 9.78125 -19.359375 C 10.21875 -18.867188 10.523438 -18.332031 10.703125 -17.75 C 10.890625 -17.175781 11.019531 -16.585938 11.09375 -15.984375 C 11.144531 -15.597656 10.988281 -15.367188 10.625 -15.296875 C 10.476562 -15.273438 10.335938 -15.253906 10.203125 -15.234375 C 10.066406 -15.222656 9.941406 -15.207031 9.828125 -15.1875 C 9.535156 -15.113281 9.328125 -15.25 9.203125 -15.59375 C 8.960938 -16.21875 8.710938 -16.84375 8.453125 -17.46875 C 8.203125 -18.050781 7.875 -18.523438 7.46875 -18.890625 C 7.125 -19.203125 6.785156 -19.1875 6.453125 -18.84375 C 6.328125 -18.726562 6.207031 -18.59375 6.09375 -18.4375 C 5.988281 -18.28125 5.890625 -18.113281 5.796875 -17.9375 Z M 5.796875 -17.9375 "/></g></g></g><g fill="#ffffff" fill-opacity="1"><g transform="translate(267.113961, 223.519879)"><g><path d="M 0.25 -4.34375 C 0.0078125 -5.820312 -0.15625 -7.289062 -0.25 -8.75 C -0.351562 -10.21875 -0.351562 -11.648438 -0.25 -13.046875 C -0.300781 -14.492188 -0.265625 -15.90625 -0.140625 -17.28125 C -0.0234375 -18.664062 0.117188 -20.046875 0.296875 -21.421875 C 0.367188 -21.859375 0.367188 -22.113281 0.296875 -22.1875 C 0.222656 -22.257812 -0.0390625 -22.296875 -0.5 -22.296875 C -0.84375 -22.296875 -1.1875 -22.296875 -1.53125 -22.296875 C -1.882812 -22.296875 -2.234375 -22.296875 -2.578125 -22.296875 C -2.765625 -22.316406 -2.953125 -22.34375 -3.140625 -22.375 C -3.335938 -22.414062 -3.425781 -22.59375 -3.40625 -22.90625 C -3.40625 -23.195312 -3.363281 -23.398438 -3.28125 -23.515625 C -3.195312 -23.640625 -3 -23.726562 -2.6875 -23.78125 C -2.226562 -23.851562 -1.765625 -23.914062 -1.296875 -23.96875 C -0.835938 -24.03125 -0.378906 -24.078125 0.078125 -24.109375 C 0.554688 -24.148438 0.84375 -24.414062 0.9375 -24.90625 C 1.039062 -25.363281 1.15625 -25.804688 1.28125 -26.234375 C 1.414062 -26.671875 1.554688 -27.109375 1.703125 -27.546875 C 1.867188 -28.035156 2.195312 -28.265625 2.6875 -28.234375 C 3.019531 -28.210938 3.347656 -28.207031 3.671875 -28.21875 C 4.003906 -28.226562 4.328125 -28.234375 4.640625 -28.234375 C 5.003906 -28.210938 5.226562 -28.148438 5.3125 -28.046875 C 5.394531 -27.953125 5.4375 -27.726562 5.4375 -27.375 C 5.457031 -26.769531 5.445312 -26.148438 5.40625 -25.515625 C 5.351562 -25.035156 5.363281 -24.753906 5.4375 -24.671875 C 5.507812 -24.585938 5.800781 -24.546875 6.3125 -24.546875 C 7.320312 -24.566406 8.335938 -24.613281 9.359375 -24.6875 C 10.390625 -24.757812 11.414062 -24.769531 12.4375 -24.71875 C 12.875 -24.71875 13.3125 -24.71875 13.75 -24.71875 C 14.195312 -24.71875 14.648438 -24.695312 15.109375 -24.65625 C 15.503906 -24.625 15.753906 -24.535156 15.859375 -24.390625 C 15.960938 -24.242188 15.992188 -23.992188 15.953125 -23.640625 C 15.898438 -23.367188 15.78125 -23.222656 15.59375 -23.203125 C 15.414062 -23.171875 15.253906 -23.144531 15.109375 -23.125 C 14.972656 -23.101562 14.816406 -23.09375 14.640625 -23.09375 C 13.242188 -23.019531 11.835938 -22.945312 10.421875 -22.875 C 9.003906 -22.800781 7.582031 -22.71875 6.15625 -22.625 C 5.65625 -22.59375 5.351562 -22.535156 5.25 -22.453125 C 5.15625 -22.367188 5.070312 -22.0625 5 -21.53125 C 4.851562 -20.226562 4.738281 -18.914062 4.65625 -17.59375 C 4.570312 -16.28125 4.484375 -14.972656 4.390625 -13.671875 C 4.285156 -12.191406 4.222656 -10.71875 4.203125 -9.25 C 4.179688 -7.789062 4.179688 -6.328125 4.203125 -4.859375 C 4.222656 -4.015625 4.300781 -3.179688 4.4375 -2.359375 C 4.570312 -1.535156 4.738281 -0.710938 4.9375 0.109375 C 5 0.421875 5.101562 0.75 5.25 1.09375 C 5.5 1.570312 5.753906 1.828125 6.015625 1.859375 C 6.285156 1.898438 6.597656 1.71875 6.953125 1.3125 C 7.097656 1.164062 7.222656 1.003906 7.328125 0.828125 C 7.441406 0.660156 7.550781 0.492188 7.65625 0.328125 C 8.15625 -0.515625 8.566406 -1.382812 8.890625 -2.28125 C 9.222656 -3.175781 9.554688 -4.070312 9.890625 -4.96875 C 10.160156 -5.664062 10.410156 -6.359375 10.640625 -7.046875 C 10.867188 -7.734375 11.101562 -8.429688 11.34375 -9.140625 C 11.394531 -9.285156 11.441406 -9.425781 11.484375 -9.5625 C 11.535156 -9.707031 11.660156 -9.78125 11.859375 -9.78125 C 12.335938 -9.8125 12.75 -9.691406 13.09375 -9.421875 C 13.15625 -9.347656 13.1875 -9.269531 13.1875 -9.1875 C 13.1875 -9.101562 13.175781 -9.023438 13.15625 -8.953125 C 12.695312 -7.378906 12.25 -5.8125 11.8125 -4.25 C 11.382812 -2.695312 10.78125 -1.195312 10 0.25 C 9.851562 0.539062 9.675781 0.832031 9.46875 1.125 C 8.789062 2.113281 7.953125 2.722656 6.953125 2.953125 C 5.960938 3.179688 4.914062 3.128906 3.8125 2.796875 C 3.394531 2.671875 3.039062 2.453125 2.75 2.140625 C 2.457031 1.828125 2.207031 1.476562 2 1.09375 C 1.539062 0.238281 1.171875 -0.644531 0.890625 -1.5625 C 0.609375 -2.476562 0.394531 -3.40625 0.25 -4.34375 Z M 0.25 -4.34375 "/></g></g></g><g fill="#ffffff" fill-opacity="1"><g transform="translate(278.893971, 223.519879)"><g><path d="M 10.65625 -10.625 C 10.945312 -10.5 11.085938 -10.34375 11.078125 -10.15625 C 11.066406 -9.976562 11.007812 -9.796875 10.90625 -9.609375 C 10.476562 -8.585938 10.039062 -7.554688 9.59375 -6.515625 C 9.144531 -5.484375 8.691406 -4.445312 8.234375 -3.40625 C 8.085938 -3.09375 7.941406 -2.785156 7.796875 -2.484375 C 7.648438 -2.179688 7.492188 -1.875 7.328125 -1.5625 C 6.910156 -0.851562 6.332031 -0.363281 5.59375 -0.09375 C 4.863281 0.164062 4.109375 0.207031 3.328125 0.03125 C 2.554688 -0.132812 1.929688 -0.546875 1.453125 -1.203125 C 1.140625 -1.609375 0.890625 -2.039062 0.703125 -2.5 C 0.523438 -2.957031 0.375 -3.429688 0.25 -3.921875 C 0.0625 -4.660156 -0.0625 -5.414062 -0.125 -6.1875 C -0.1875 -6.96875 -0.207031 -7.695312 -0.1875 -8.375 C -0.207031 -9.875 -0.113281 -11.3125 0.09375 -12.6875 C 0.300781 -14.0625 0.582031 -15.425781 0.9375 -16.78125 C 0.96875 -16.925781 1.007812 -17.070312 1.0625 -17.21875 C 1.125 -17.363281 1.179688 -17.507812 1.234375 -17.65625 C 1.347656 -17.988281 1.578125 -18.144531 1.921875 -18.125 C 1.992188 -18.125 2.050781 -18.125 2.09375 -18.125 C 2.144531 -18.125 2.195312 -18.125 2.25 -18.125 C 2.96875 -18.101562 3.394531 -18.023438 3.53125 -17.890625 C 3.664062 -17.753906 3.695312 -17.335938 3.625 -16.640625 C 3.53125 -15.191406 3.429688 -13.753906 3.328125 -12.328125 C 3.234375 -10.898438 3.210938 -9.472656 3.265625 -8.046875 C 3.285156 -7.242188 3.304688 -6.453125 3.328125 -5.671875 C 3.359375 -4.890625 3.445312 -4.109375 3.59375 -3.328125 C 3.632812 -3.015625 3.703125 -2.710938 3.796875 -2.421875 C 3.898438 -2.140625 4.023438 -1.863281 4.171875 -1.59375 C 4.484375 -1.039062 4.804688 -1.015625 5.140625 -1.515625 C 5.285156 -1.710938 5.410156 -1.921875 5.515625 -2.140625 C 5.628906 -2.359375 5.75 -2.578125 5.875 -2.796875 C 6.476562 -3.953125 7.078125 -5.113281 7.671875 -6.28125 C 8.265625 -7.457031 8.863281 -8.625 9.46875 -9.78125 C 9.488281 -9.851562 9.515625 -9.921875 9.546875 -9.984375 C 9.585938 -10.046875 9.617188 -10.113281 9.640625 -10.1875 C 9.804688 -10.5 9.941406 -10.671875 10.046875 -10.703125 C 10.160156 -10.742188 10.363281 -10.71875 10.65625 -10.625 Z M 3.046875 -20.046875 C 2.023438 -20.023438 1.503906 -20.425781 1.484375 -21.25 C 1.460938 -21.707031 1.59375 -22.097656 1.875 -22.421875 C 2.164062 -22.742188 2.519531 -22.90625 2.9375 -22.90625 C 3.445312 -22.90625 3.851562 -22.785156 4.15625 -22.546875 C 4.457031 -22.304688 4.609375 -21.96875 4.609375 -21.53125 C 4.609375 -20.5625 4.085938 -20.066406 3.046875 -20.046875 Z M 3.046875 -20.046875 "/></g></g></g><g fill="#ffffff" fill-opacity="1"><g transform="translate(289.006668, 223.519879)"><g><path d="M 8.921875 -10.328125 C 8.921875 -10.328125 8.859375 -10.304688 8.734375 -10.265625 C 8.734375 -10.191406 8.734375 -10.117188 8.734375 -10.046875 C 8.734375 -9.972656 8.742188 -9.898438 8.765625 -9.828125 C 9.085938 -8.640625 9.179688 -7.472656 9.046875 -6.328125 C 8.910156 -5.179688 8.613281 -4.050781 8.15625 -2.9375 C 7.644531 -1.707031 6.910156 -0.847656 5.953125 -0.359375 C 5.003906 0.117188 3.890625 0.210938 2.609375 -0.078125 C 1.929688 -0.242188 1.363281 -0.523438 0.90625 -0.921875 C 0.445312 -1.316406 0.0703125 -1.804688 -0.21875 -2.390625 C -0.550781 -3.046875 -0.769531 -3.71875 -0.875 -4.40625 C -0.988281 -5.09375 -1.023438 -5.785156 -0.984375 -6.484375 C -0.859375 -7.765625 -0.609375 -9.003906 -0.234375 -10.203125 C 0.140625 -11.398438 0.675781 -12.53125 1.375 -13.59375 C 1.59375 -13.925781 1.828125 -14.242188 2.078125 -14.546875 C 2.335938 -14.847656 2.625 -15.125 2.9375 -15.375 C 3.488281 -15.78125 3.988281 -15.984375 4.4375 -15.984375 C 4.882812 -15.984375 5.375 -15.789062 5.90625 -15.40625 C 6.125 -15.238281 6.332031 -15.0625 6.53125 -14.875 C 6.738281 -14.695312 6.941406 -14.507812 7.140625 -14.3125 C 7.285156 -14.164062 7.429688 -14.019531 7.578125 -13.875 C 7.722656 -13.738281 7.867188 -13.597656 8.015625 -13.453125 C 8.878906 -12.554688 9.832031 -11.921875 10.875 -11.546875 C 11.914062 -11.171875 13.0625 -11.148438 14.3125 -11.484375 C 14.507812 -11.535156 14.707031 -11.578125 14.90625 -11.609375 C 15.113281 -11.648438 15.316406 -11.679688 15.515625 -11.703125 C 15.679688 -11.753906 15.832031 -11.753906 15.96875 -11.703125 C 16.101562 -11.660156 16.191406 -11.539062 16.234375 -11.34375 C 16.335938 -10.957031 16.179688 -10.703125 15.765625 -10.578125 C 14.753906 -10.335938 13.734375 -10.148438 12.703125 -10.015625 C 11.679688 -9.890625 10.648438 -9.945312 9.609375 -10.1875 C 9.484375 -10.238281 9.363281 -10.269531 9.25 -10.28125 C 9.144531 -10.289062 9.035156 -10.304688 8.921875 -10.328125 Z M 5.21875 -12.6875 C 5.144531 -12.78125 5.070312 -12.875 5 -12.96875 C 4.925781 -13.070312 4.816406 -13.144531 4.671875 -13.1875 C 4.484375 -12.976562 4.328125 -12.742188 4.203125 -12.484375 C 4.085938 -12.234375 3.976562 -11.972656 3.875 -11.703125 C 3.65625 -11.003906 3.472656 -10.289062 3.328125 -9.5625 C 3.191406 -8.84375 3.070312 -8.117188 2.96875 -7.390625 C 2.851562 -6.617188 2.800781 -5.847656 2.8125 -5.078125 C 2.820312 -4.304688 2.945312 -3.53125 3.1875 -2.75 C 3.238281 -2.5625 3.300781 -2.367188 3.375 -2.171875 C 3.445312 -1.984375 3.554688 -1.800781 3.703125 -1.625 C 4.085938 -1.125 4.519531 -1.085938 5 -1.515625 C 5.34375 -1.835938 5.632812 -2.25 5.875 -2.75 C 6.695312 -4.46875 7.03125 -6.15625 6.875 -7.8125 C 6.71875 -9.46875 6.164062 -11.09375 5.21875 -12.6875 Z M 5.21875 -12.6875 "/></g></g></g><g fill="#ffffff" fill-opacity="1"><g transform="translate(303.903853, 223.519879)"><g><path d="M 20.375 -10.578125 C 20.707031 -10.503906 20.921875 -10.414062 21.015625 -10.3125 C 21.117188 -10.207031 21.125 -9.984375 21.03125 -9.640625 C 20.632812 -8.171875 20.171875 -6.734375 19.640625 -5.328125 C 19.109375 -3.921875 18.4375 -2.59375 17.625 -1.34375 C 17.28125 -0.832031 16.925781 -0.410156 16.5625 -0.078125 C 16.0625 0.378906 15.410156 0.671875 14.609375 0.796875 C 13.804688 0.921875 13.101562 0.835938 12.5 0.546875 C 12.164062 0.398438 11.898438 0.195312 11.703125 -0.0625 C 11.515625 -0.332031 11.347656 -0.640625 11.203125 -0.984375 C 10.984375 -1.535156 10.820312 -2.109375 10.71875 -2.703125 C 10.625 -3.296875 10.566406 -3.894531 10.546875 -4.5 C 10.472656 -5.726562 10.476562 -6.953125 10.5625 -8.171875 C 10.644531 -9.390625 10.710938 -10.617188 10.765625 -11.859375 C 10.835938 -13.179688 10.738281 -14.507812 10.46875 -15.84375 C 10.425781 -16.03125 10.375 -16.238281 10.3125 -16.46875 C 10.25 -16.695312 10.085938 -16.835938 9.828125 -16.890625 C 9.585938 -16.941406 9.394531 -16.890625 9.25 -16.734375 C 9.101562 -16.578125 8.957031 -16.410156 8.8125 -16.234375 C 7.4375 -14.523438 6.382812 -12.628906 5.65625 -10.546875 C 5.070312 -8.878906 4.5625 -7.191406 4.125 -5.484375 C 3.695312 -3.785156 3.328125 -2.078125 3.015625 -0.359375 C 2.910156 0.117188 2.8125 0.394531 2.71875 0.46875 C 2.625 0.539062 2.347656 0.585938 1.890625 0.609375 C 1.710938 0.609375 1.539062 0.613281 1.375 0.625 C 1.207031 0.644531 1.039062 0.65625 0.875 0.65625 C 0.3125 0.695312 -0.03125 0.664062 -0.15625 0.5625 C -0.289062 0.457031 -0.394531 0.148438 -0.46875 -0.359375 C -0.5625 -0.992188 -0.65625 -1.625 -0.75 -2.25 C -0.851562 -2.875 -0.914062 -3.5 -0.9375 -4.125 C -1.039062 -6.425781 -1.03125 -8.71875 -0.90625 -11 C -0.78125 -13.28125 -0.523438 -15.554688 -0.140625 -17.828125 C -0.140625 -17.929688 -0.117188 -18.03125 -0.078125 -18.125 C -0.046875 -18.21875 -0.03125 -18.316406 -0.03125 -18.421875 C 0.0078125 -18.898438 0.285156 -19.128906 0.796875 -19.109375 C 1.378906 -19.109375 1.992188 -19.117188 2.640625 -19.140625 C 3.078125 -19.160156 3.320312 -18.941406 3.375 -18.484375 C 3.394531 -18.171875 3.40625 -17.894531 3.40625 -17.65625 C 3.40625 -16.757812 3.40625 -15.859375 3.40625 -14.953125 C 3.40625 -14.046875 3.40625 -13.132812 3.40625 -12.21875 C 3.40625 -12.070312 3.40625 -11.910156 3.40625 -11.734375 C 3.40625 -11.566406 3.40625 -11.378906 3.40625 -11.171875 C 3.601562 -11.304688 3.726562 -11.457031 3.78125 -11.625 C 3.84375 -11.800781 3.910156 -11.960938 3.984375 -12.109375 C 4.347656 -12.859375 4.726562 -13.585938 5.125 -14.296875 C 5.53125 -15.015625 5.984375 -15.695312 6.484375 -16.34375 C 6.898438 -16.851562 7.351562 -17.289062 7.84375 -17.65625 C 8.34375 -18.019531 8.914062 -18.273438 9.5625 -18.421875 C 11.019531 -18.753906 12.125 -18.269531 12.875 -16.96875 C 13.113281 -16.53125 13.285156 -16.066406 13.390625 -15.578125 C 13.503906 -15.097656 13.582031 -14.617188 13.625 -14.140625 C 13.675781 -13.441406 13.695312 -12.738281 13.6875 -12.03125 C 13.675781 -11.332031 13.632812 -10.632812 13.5625 -9.9375 C 13.4375 -8.625 13.347656 -7.3125 13.296875 -6 C 13.253906 -4.6875 13.378906 -3.375 13.671875 -2.0625 C 13.671875 -1.988281 13.675781 -1.921875 13.6875 -1.859375 C 13.695312 -1.804688 13.710938 -1.742188 13.734375 -1.671875 C 13.804688 -1.453125 13.875 -1.21875 13.9375 -0.96875 C 14 -0.726562 14.175781 -0.585938 14.46875 -0.546875 C 14.726562 -0.492188 14.945312 -0.554688 15.125 -0.734375 C 15.3125 -0.921875 15.476562 -1.113281 15.625 -1.3125 C 15.863281 -1.59375 16.078125 -1.910156 16.265625 -2.265625 C 16.460938 -2.617188 16.660156 -2.960938 16.859375 -3.296875 C 17.410156 -4.359375 17.90625 -5.445312 18.34375 -6.5625 C 18.78125 -7.675781 19.191406 -8.800781 19.578125 -9.9375 C 19.617188 -10.125 19.679688 -10.296875 19.765625 -10.453125 C 19.859375 -10.609375 20.0625 -10.648438 20.375 -10.578125 Z M 20.375 -10.578125 "/></g></g></g></svg>